<?xml version="1.0" standalone="no"?>
<!DOCTYPE svg PUBLIC "-//W3C//DTD SVG 1.1//EN" "http://www.w3.org/Graphics/SVG/1.1/DTD/svg11.dtd" >
<svg>
<metadata>
Created by FontForge 20090914 at Thu Jul 23 14:42:29 2015
 By www-data
\251 Dutch Design: Albert-Jan Pool, 1995. Published by FontShop International FontFont release 15
</metadata>
<defs>
<font id="DIN-Regular" horiz-adv-x="522" >
  <font-face 
    font-family="DIN"
    font-weight="400"
    font-stretch="normal"
    units-per-em="1000"
    panose-1="2 0 5 3 4 0 0 2 0 3"
    ascent="800"
    descent="-200"
    x-height="492"
    cap-height="712"
    bbox="-104 -226.003 1115 985"
    underline-thickness="51"
    underline-position="-114"
    unicode-range="U+0020-U+FB02"
  />
<missing-glyph horiz-adv-x="1000" 
 />
    <glyph glyph-name=".notdef" horiz-adv-x="1000" 
 />
    <glyph glyph-name="space" unicode=" " horiz-adv-x="249" 
 />
    <glyph glyph-name="exclam" unicode="!" horiz-adv-x="316" 
d="M215 712h-83l10 -512h62zM216 0v84h-86v-84h86z" />
    <glyph glyph-name="quotedbl" unicode="&#x22;" horiz-adv-x="423" 
d="M335 542v170h-79v-170h79zM167 542v170h-79v-170h79z" />
    <glyph glyph-name="numbersign" unicode="#" horiz-adv-x="653" 
d="M602 432v66h-87l34 215h-73l-34 -215h-159l35 215h-75l-34 -215h-101v-66h92l-23 -141h-100v-64h89l-36 -227h74l35 227h160l-36 -227h74l36 227h99v64h-89l23 141h96zM432 432l-23 -141h-159l23 141h159z" />
    <glyph glyph-name="dollar" unicode="$" horiz-adv-x="596" 
d="M540 196c0 30 -5.33203 56.835 -15.999 80.502s-25.667 43.834 -45 60.501c-7.33301 6.66699 -15.166 12.5 -23.499 17.5s-17.5 9.5 -27.5 13.5s-21.333 7.5 -34 10.5s-27.334 5.83301 -44.001 8.5l-31 5v259c30.667 -2 56.834 -8.16699 78.501 -18.5
s42.167 -24.166 61.5 -41.499l49 49c-28 24.667 -56.333 43.167 -85 55.5s-62.334 19.5 -101.001 21.5v89h-60v-89c-62.667 -5.33301 -111.834 -25.833 -147.501 -61.5s-53.5 -81.834 -53.5 -138.501c0 -56 18.333 -100.333 55 -133c14 -12 32.333 -23.333 55 -34
s47.667 -17.334 75 -20.001l20 -2v-265c-34 1.33301 -64.5 7.83301 -91.5 19.5s-53.833 30.834 -80.5 57.501l-52 -52c31.333 -31.333 64 -54.333 98 -69s74.667 -23 122 -25v-108h60v110c32.667 2 62.5 8.16699 89.5 18.5s50 24.166 69 41.499s33.667 37.666 44 60.999
s15.5 49.666 15.5 78.999zM266.001 399.002c-17.333 2.66699 -34.5 7.00195 -51.5 13.002s-32.5 14.667 -46.5 26c-21.333 18.667 -32 46 -32 82c0 37.333 11.167 67.666 33.5 90.999s54.5 36.666 96.5 39.999v-252zM464.001 194.004
c0 -38.667 -12.834 -69.334 -38.501 -92.001s-61.167 -35.667 -106.5 -39v257c21.333 -3.33301 40.833 -6.66602 58.5 -9.99902s34.834 -12.333 51.501 -27c11.333 -10 20 -22.667 26 -38s9 -32.333 9 -51z" />
    <glyph glyph-name="percent" unicode="%" horiz-adv-x="833" 
d="M769 128v105c0 41.333 -12.833 74.166 -38.5 98.499s-57.834 36.5 -96.501 36.5c-39.333 0 -71.666 -12.167 -96.999 -36.5s-38 -57.166 -38 -98.499v-105c0 -41.333 12.667 -74.166 38 -98.499s57.666 -36.5 96.999 -36.5c38.667 0 70.834 12.167 96.501 36.5
s38.5 57.166 38.5 98.499zM614 712h-60l-334 -712h60zM335 479v105c0 41.333 -12.833 74.166 -38.5 98.499s-57.834 36.5 -96.501 36.5c-39.333 0 -71.666 -12.167 -96.999 -36.5s-38 -57.166 -38 -98.499v-105c0 -40.667 12.667 -73.167 38 -97.5
s57.666 -36.5 96.999 -36.5c38.667 0 70.834 12.167 96.501 36.5s38.5 56.833 38.5 97.5zM712 130c0 -26.667 -6.16699 -47.8301 -18.5 -63.4971s-32.166 -23.5 -59.499 -23.5c-28 0 -48 7.66699 -60 23s-18 36.666 -18 63.999v101c0 27.333 6 48.666 18 63.999s32 23 60 23
c27.333 0 47.166 -7.83301 59.499 -23.5s18.5 -36.834 18.5 -63.501v-101zM278 481.004c0 -26.667 -6.16797 -47.665 -18.501 -62.998s-32.166 -23 -59.499 -23s-47.166 7.5 -59.499 22.5s-18.5 36.167 -18.5 63.5v101c0 27.333 6 48.666 18 63.999s32 23 60 23
c27.333 0 47.166 -7.83301 59.499 -23.5s18.5 -36.834 18.5 -63.501v-101z" />
    <glyph glyph-name="ampersand" unicode="&#x26;" horiz-adv-x="739" 
d="M671 0l-109.004 131.002c23.333 28 40 60 50 96s15.333 76.667 16 122h-72c0 -20 -0.833008 -37.667 -2.5 -53s-4 -29.333 -7 -42s-7 -24.5 -12 -35.5s-11.167 -21.833 -18.5 -32.5l-182 219l21 15c8.66699 6 16 10.833 22 14.5s9.33301 5.83398 10 6.50098
c22.667 15.333 41.5 33.166 56.5 53.499s22.5 44.833 22.5 73.5c0 21.333 -3.83301 41.166 -11.5 59.499s-18.5 34.166 -32.5 47.499s-30.5 23.833 -49.5 31.5s-39.5 11.5 -61.5 11.5c-22.667 0 -43.667 -3.83301 -63 -11.5s-36 -18.167 -50 -31.5s-24.833 -29 -32.5 -47
s-11.5 -37.667 -11.5 -59c0 -16 2.33301 -31.167 7 -45.5s10.834 -27.833 18.501 -40.5s16 -24.667 25 -36l26.5 -33l-57 -40.5c-18.667 -13.667 -35.167 -28.834 -49.5 -45.501s-25.833 -35.334 -34.5 -56.001s-13 -44.334 -13 -71.001
c0 -31.333 5.16699 -59.666 15.5 -84.999s25.333 -47 45 -65s43.334 -32 71.001 -42s58.834 -15 93.501 -15c28.667 0 54.334 3.16699 77.001 9.5s42.667 13.833 60 22.5s32 17.834 44 27.501s21.667 17.834 29 24.501l64 -78h95zM394.996 568.002
c0 -20.667 -6.5 -37.832 -19.5 -51.499s-27.833 -26.167 -44.5 -37.5c-0.666992 -0.666992 -3 -2.33398 -7 -5.00098l-15.5 -10.5l-15.5 -10.5c-23.333 28.667 -39.833 51.167 -49.5 67.5s-14.5 32.833 -14.5 49.5c0 24 7.5 43.833 22.5 59.5s34.833 23.5 59.5 23.5
c24 0 44 -8.16699 60 -24.5s24 -36.5 24 -60.5zM468.996 130.004c-30.667 -27.333 -59.6689 -45.6689 -87.002 -55.002s-54.333 -14 -81 -14c-22 0 -42.167 3.33301 -60.5 10s-34.166 16.334 -47.499 29.001s-23.666 27.667 -30.999 45s-11 36.666 -11 57.999
c0 20 3.5 37.833 10.5 53.5s16.167 29.834 27.5 42.501s24.333 24.334 39 35.001l45 32z" />
    <glyph glyph-name="quotesingle" unicode="'" horiz-adv-x="255" 
d="M167 542v170h-79v-170h79z" />
    <glyph glyph-name="parenleft" unicode="(" horiz-adv-x="298" 
d="M234 -45l-30.5 31c-9 9.33301 -16.833 20.666 -23.5 33.999c-10.667 21.333 -16 48.333 -16 81v510c0 32.667 5.33301 59.667 16 81c6.66699 13.333 14.5 24.666 23.5 33.999l30.5 31l-49 49l-41 -42.5c-11.333 -12.333 -21.666 -26.833 -30.999 -43.5
s-15.166 -33.667 -17.499 -51s-3.5 -34.666 -3.5 -51.999v-522c0 -17.333 1.16699 -34.666 3.5 -51.999s8.16602 -34.333 17.499 -51s19.666 -31.167 30.999 -43.5l41 -42.5z" />
    <glyph glyph-name="parenright" unicode=")" horiz-adv-x="298" 
d="M205 95v522c0 17.333 -1 34.666 -3 51.999s-7.66699 34.333 -17 51s-19.666 31.167 -30.999 43.5l-41 42.5l-51 -51l31 -31c9.33301 -9.33301 17.333 -20.666 24 -33.999c5.33301 -10 9 -21.667 11 -35s3 -28 3 -44v-510c0 -16 -1 -30.667 -3 -44s-5.66699 -25 -11 -35
c-6.66699 -13.333 -14.667 -24.666 -24 -33.999l-31 -31l51 -51l41 42.5c11.333 12.333 21.666 26.833 30.999 43.5s15 33.667 17 51s3 34.666 3 51.999z" />
    <glyph glyph-name="asterisk" unicode="*" horiz-adv-x="474" 
d="M407 472l-120 65l120 66l-28 48l-117 -71l4 137h-58l4 -137l-116 71l-29 -48l120 -66l-120 -65l29 -49l116 71l-4 -137h58l-4 137l117 -71z" />
    <glyph glyph-name="plus" unicode="+" 
d="M470 234v67h-175v174h-67v-174h-176v-67h176v-176h67v176h175z" />
    <glyph glyph-name="comma" unicode="," horiz-adv-x="264" 
d="M176 -65v153h-88v-232z" />
    <glyph glyph-name="hyphen" unicode="-" horiz-adv-x="426" 
d="M350 236v67h-274v-67h274z" />
    <glyph glyph-name="period" unicode="." horiz-adv-x="270" 
d="M182 0v94h-94v-94h94z" />
    <glyph glyph-name="slash" unicode="/" horiz-adv-x="355" 
d="M356 786h-71l-285 -860h71z" />
    <glyph glyph-name="zero" unicode="0" 
d="M456 190v332c0 29.333 -5 56.166 -15 80.499s-23.667 45 -41 62s-37.833 30.167 -61.5 39.5s-49.5 14 -77.5 14s-53.833 -4.66699 -77.5 -14s-44.167 -22.5 -61.5 -39.5s-31 -37.667 -41 -62s-15 -51.166 -15 -80.499v-332c0 -29.333 5 -56.166 15 -80.499
s23.667 -45 41 -62s37.833 -30.167 61.5 -39.5s49.5 -14 77.5 -14s53.833 4.66699 77.5 14s44.167 22.5 61.5 39.5s31 37.667 41 62s15 51.166 15 80.499zM384 194c0 -39.333 -10.5 -71.833 -31.5 -97.5s-51.5 -38.5 -91.5 -38.5s-70.5 12.833 -91.5 38.5
s-31.5 58.167 -31.5 97.5v324c0 39.333 10.5 71.833 31.5 97.5s51.5 38.5 91.5 38.5s70.5 -12.833 91.5 -38.5s31.5 -58.167 31.5 -97.5v-324z" />
    <glyph glyph-name="one" unicode="1" 
d="M330 0v712h-72l-133 -115v-82l133 117v-632h72z" />
    <glyph glyph-name="two" unicode="2" 
d="M461 0v63.998h-306l249 318c19.333 25.333 33.666 48.5 42.999 69.5s14 45.833 14 74.5c0 29.333 -4.66699 55.833 -14 79.5s-22.666 43.834 -39.999 60.501s-38 29.5 -62 38.5s-50.667 13.5 -80 13.5c-30 0 -57 -4.83301 -81 -14.5s-44.5 -23 -61.5 -40
s-30.167 -37.333 -39.5 -61s-14 -49.5 -14 -77.5h72c0 22.667 3.33301 42.167 10 58.5s15.667 29.833 27 40.5s24.5 18.334 39.5 23.001s30.833 7 47.5 7c39.333 0 69.833 -11.667 91.5 -35s32.5 -54.333 32.5 -93c0 -19.333 -3.33301 -37.333 -10 -54
s-16.667 -33.667 -30 -51l-281 -357v-64h393z" />
    <glyph glyph-name="three" unicode="3" 
d="M460 194c0 88.667 -36.3369 146.668 -109.004 174.001c64 28.667 96 81.334 96 158.001c0 28.667 -4.83301 55 -14.5 79s-23 44.333 -40 61s-37.667 29.667 -62 39s-50.833 14 -79.5 14c-27.333 0 -52.666 -4.16699 -75.999 -12.5s-43.833 -20.333 -61.5 -36
s-32 -34.834 -43 -57.501s-17.5 -48.334 -19.5 -77.001h72c3.33301 36.667 16 65.667 38 87s52 32 90 32c34.667 0 64 -11 88 -33s36 -54.333 36 -97c0 -40 -10.167 -71.5 -30.5 -94.5s-52.5 -34.5 -96.5 -34.5h-15v-63h15c48.667 0 84.167 -12.167 106.5 -36.5
s33.5 -58.166 33.5 -101.499c0 -44 -13.167 -78 -39.5 -102s-58.833 -36 -97.5 -36c-17.333 0 -33.833 2.33301 -49.5 7s-29.834 12 -42.501 22s-23 22.833 -31 38.5s-12.667 34.5 -14 56.5h-72c1.33301 -32 7.83301 -59.833 19.5 -83.5s26.834 -43.334 45.501 -59.001
s40.334 -27.167 65.001 -34.5s51 -11 79 -11c28.667 0 55.834 4.33301 81.501 13s47.834 21.5 66.501 38.5s33.5 38 44.5 63s16.5 53.833 16.5 86.5z" />
    <glyph glyph-name="four" unicode="4" 
d="M482 113v65h-87v202h-71v-202h-207l257 534h-77l-257 -534v-65h284v-113h71v113h87z" />
    <glyph glyph-name="five" unicode="5" 
d="M462 235c0 16.667 -0.665039 33.499 -1.99805 50.499s-4 33.833 -8 50.5s-10 32.5 -18 47.5s-18.333 29.167 -31 42.5c-14 14 -31.333 25 -52 33s-44.334 12 -71.001 12c-28 0 -52.833 -4.33301 -74.5 -13s-39.5 -20.667 -53.5 -36v226h295v64h-360v-374h65
c7.33301 21.333 21 38.333 41 51s45.667 19 77 19c26 0 46.833 -5 62.5 -15s27.667 -23 36 -39s14 -34.333 17 -55s4.5 -42 4.5 -64c0 -12.667 -0.333008 -25.667 -1 -39s-2.16699 -26.333 -4.5 -39s-6.16602 -24.667 -11.499 -36s-12.666 -21.666 -21.999 -30.999
c-22 -22 -51.333 -33 -88 -33c-38 0 -66.5 9.5 -85.5 28.5s-30.833 46.5 -35.5 82.5h-72c2 -25.333 7 -48.333 15 -69s19.667 -39 35 -55c15.333 -15.333 35.166 -27.666 59.499 -36.999s52.166 -14 83.499 -14c32 0 59.5 4.66699 82.5 14s42.833 22.333 59.5 39
c25.333 25.333 41.166 54.166 47.499 86.499s9.5 66.5 9.5 102.5z" />
    <glyph glyph-name="six" unicode="6" 
d="M460 205c0 29.333 -4.50098 56.332 -13.501 80.999s-21.5 46 -37.5 64s-35.333 32 -58 42s-48 15 -76 15s-53 -5 -75 -15l159 320h-74l-175 -353c-15.333 -30 -26.666 -57.833 -33.999 -83.5s-11 -51.167 -11 -76.5c0 -30.667 4.66699 -58.667 14 -84s22.5 -47 39.5 -65
s37.833 -31.833 62.5 -41.5s52 -14.5 82 -14.5s57.167 5.33301 81.5 16s45 25.334 62 44.001s30.167 41 39.5 67s14 54 14 84zM387.999 201.999c0 -44 -11.502 -79 -34.502 -105s-53.5 -39 -91.5 -39s-68.333 13 -91 39s-34 61 -34 105s11.333 79 34 105s53 39 91 39
c20.667 0 38.834 -3.83301 54.501 -11.5s28.834 -18 39.501 -31s18.667 -28.167 24 -45.5s8 -36 8 -56z" />
    <glyph glyph-name="seven" unicode="7" 
d="M471 648v64h-395v-176h71v112h248l-247 -648h76z" />
    <glyph glyph-name="eight" unicode="8" 
d="M471 196c0 42 -10.165 77 -30.498 105s-45.5 50.667 -75.5 68c28 16 50.333 37 67 63s25 57.667 25 95c0 28 -4.83301 53.667 -14.5 77s-23.334 43.5 -41.001 60.5s-38.5 30.167 -62.5 39.5s-50 14 -78 14s-54 -4.66699 -78 -14s-44.833 -22.5 -62.5 -39.5
s-31.334 -37.167 -41.001 -60.5s-14.5 -49 -14.5 -77c0 -37.333 8.5 -69 25.5 -95s39.5 -47 67.5 -63c-30 -17.333 -55.333 -40 -76 -68s-31 -63 -31 -105c0 -30 5.33301 -57.333 16 -82s25.5 -46 44.5 -64s41.333 -31.833 67 -41.5s53.167 -14.5 82.5 -14.5
s56.833 4.83301 82.5 14.5s48 23.5 67 41.5s33.833 39.333 44.5 64s16 52 16 82zM385.002 526c0 -38 -11.5 -68.667 -34.5 -92s-52.833 -35 -89.5 -35s-66.5 11.667 -89.5 35s-34.5 54 -34.5 92c0 37.333 11.5 68 34.5 92s52.833 36 89.5 36s66.5 -12 89.5 -36
s34.5 -54.667 34.5 -92zM399.002 197c0 -20 -3.5 -38.333 -10.5 -55s-16.667 -31.334 -29 -44.001s-27 -22.5 -44 -29.5s-35.167 -10.5 -54.5 -10.5s-37.5 3.5 -54.5 10.5s-31.667 16.833 -44 29.5s-22 27.334 -29 44.001s-10.5 35 -10.5 55s3.5 38.333 10.5 55
s16.667 31.334 29 44.001s27 22.5 44 29.5s35.167 10.5 54.5 10.5s37.5 -3.5 54.5 -10.5s31.667 -16.833 44 -29.5s22 -27.334 29 -44.001s10.5 -35 10.5 -55z" />
    <glyph glyph-name="nine" unicode="9" 
d="M457 513c0 30.667 -4.66602 58.668 -13.999 84.001s-22.5 47 -39.5 65s-37.833 31.833 -62.5 41.5s-52 14.5 -82 14.5s-57.167 -5.33301 -81.5 -16s-45 -25.334 -62 -44.001s-30.167 -41 -39.5 -67s-14 -54 -14 -84c0 -29.333 4.33301 -56.333 13 -81s21 -46 37 -64
s35.333 -32 58 -42s48 -15 76 -15c28.667 0 54 5 76 15l-160 -320h75l175 353c15.333 30 26.666 57.833 33.999 83.5s11 51.167 11 76.5zM385.001 510.001c0 -44 -11.5 -79 -34.5 -105s-53.5 -39 -91.5 -39c-20.667 0 -38.834 3.83301 -54.501 11.5s-28.667 18 -39 31
s-18.166 28.167 -23.499 45.5s-8 36 -8 56c0 44 11.333 79 34 105s53 39 91 39s68.5 -13 91.5 -39s34.5 -61 34.5 -105z" />
    <glyph glyph-name="colon" unicode=":" horiz-adv-x="297" 
d="M209 301v94h-94v-94h94zM209 0v94h-94v-94h94z" />
    <glyph glyph-name="semicolon" unicode=";" horiz-adv-x="297" 
d="M209 301v94h-94v-94h94zM205 -65v153h-88v-232z" />
    <glyph glyph-name="less" unicode="&#x3c;" horiz-adv-x="1027" 
d="M972 234v70h-789l365 364h-94l-399 -399l399 -399h94l-365 364h789z" />
    <glyph glyph-name="equal" unicode="=" 
d="M470 320v67h-418v-67h418zM470 151v66h-418v-66h418z" />
    <glyph glyph-name="greater" unicode="&#x3e;" horiz-adv-x="1027" 
d="M972 269l-399 399h-94l365 -364h-789v-70h789l-365 -364h94z" />
    <glyph glyph-name="question" unicode="?" horiz-adv-x="497" 
d="M451 536c0 26.667 -4.83203 51.165 -14.499 73.498s-22.834 41.5 -39.501 57.5s-36.5 28.5 -59.5 37.5s-47.5 13.5 -73.5 13.5c-27.333 0 -52.333 -4.83301 -75 -14.5s-42.5 -22.667 -59.5 -39s-30.167 -35.666 -39.5 -57.999s-14 -46.166 -14 -71.499h72
c0 16 2.66699 31.167 8 45.5s13 27 23 38s22.167 19.667 36.5 26s30.5 9.5 48.5 9.5c34 0 61.667 -11.167 83 -33.5s32 -50.5 32 -84.5c0 -17.333 -3.16699 -32.333 -9.5 -45s-14.166 -26 -23.499 -40l-81 -117c-10.667 -15.333 -18.5 -30 -23.5 -44s-7.5 -30.667 -7.5 -50
v-40h72v39c0 8 1.5 17.333 4.5 28s7.5 20.667 13.5 30l82 118c13.333 19.333 24.166 38.5 32.499 57.5s12.5 40.167 12.5 63.5zM313.001 -0.00195312v84h-86v-84h86z" />
    <glyph glyph-name="at" unicode="@" horiz-adv-x="713" 
d="M641 -1l-0.00390625 497.002c0 69.333 -19 123 -57 161c-37.333 37.333 -88.666 56 -153.999 56h-148c-66 0 -117.333 -18.667 -154 -56c-37.333 -38 -56 -91.667 -56 -161v-336c0 -22 1.16699 -41.167 3.5 -57.5s6.5 -30.833 12.5 -43.5s14 -24.334 24 -35.001
s22.667 -21.667 38 -33l49 49c-11.333 8.66699 -20.666 16.834 -27.999 24.501s-13.166 16 -17.499 25s-7.33301 19.167 -9 30.5s-2.5 25 -2.5 41v337c0 28 2.83301 50.167 8.5 66.5s16.167 32.166 31.5 47.499c14.667 14.667 30.667 25 48 31s37.666 9 60.999 9h130
c23.333 0 44.166 -3.16699 62.499 -9.5s34.5 -16.5 48.5 -30.5c14.667 -15.333 24.834 -31.5 30.501 -48.5s8.5 -38.833 8.5 -65.5v-78c-17.333 21.333 -36.666 37.166 -57.999 47.499s-46.666 15.5 -75.999 15.5s-56 -5.5 -80 -16.5s-43.333 -26.167 -58 -45.5
c-15.333 -20.667 -26 -45.334 -32 -74.001s-9 -65 -9 -109c0 -45.333 3 -82.166 9 -110.499s17.667 -52.833 35 -73.5c15.333 -19.333 34.833 -34.333 58.5 -45s49.5 -16 77.5 -16c30.667 0 56.5 5 77.5 15s39.833 25.667 56.5 47v-55zM570.996 238.002
c0 -23.333 -1.33301 -46 -4 -68s-8.33398 -41.5 -17.001 -58.5s-21 -30.667 -37 -41s-37 -15.5 -63 -15.5s-47 5.16699 -63 15.5s-28.333 24 -37 41s-14.334 36.5 -17.001 58.5s-4 44.667 -4 68s1.33301 46 4 68s8.33398 41.5 17.001 58.5s21 30.667 37 41s37 15.5 63 15.5
s47 -5.16699 63 -15.5s28.333 -24 37 -41s14.334 -36.5 17.001 -58.5s4 -44.667 4 -68z" />
    <glyph glyph-name="A" unicode="A" horiz-adv-x="611" 
d="M599 0l-261 712h-64l-262 -712h81l57 161h311l57 -161h81zM439 227h-266l134 376z" />
    <glyph glyph-name="B" unicode="B" horiz-adv-x="668" 
d="M592 197c0 42.667 -10.834 78.333 -32.501 107s-49.5 49.334 -83.5 62.001c30 11.333 55 30.666 75 57.999s30 60 30 98c0 30 -5.16699 56.667 -15.5 80s-24.666 43.166 -42.999 59.499s-40.5 28.833 -66.5 37.5s-54.333 13 -85 13h-268v-712h277
c31.333 0 60 4.16699 86 12.5s48.333 20.833 67 37.5s33.167 37.334 43.5 62.001s15.5 53 15.5 85zM504.999 520.999c0 -21.333 -3.66699 -39.834 -11 -55.501s-17.166 -28.5 -29.499 -38.5s-27 -17.5 -44 -22.5s-35.5 -7.5 -55.5 -7.5h-186v247h186
c20 0 38.5 -2.5 55.5 -7.5s31.667 -12.5 44 -22.5s22.166 -22.667 29.499 -38s11 -33.666 11 -54.999zM515.999 198.998c0 -40 -12.833 -71.833 -38.5 -95.5s-60.5 -35.5 -104.5 -35.5h-194v261h194c44 0 78.833 -11.667 104.5 -35s38.5 -55 38.5 -95z" />
    <glyph glyph-name="C" unicode="C" horiz-adv-x="637" 
d="M572 206h-75.999c-9.33301 -44 -29 -79 -59 -105s-67.333 -39 -112 -39c-23.333 0 -45.833 4.33301 -67.5 13s-40.167 21 -55.5 37c-11.333 11.333 -20.333 23.5 -27 36.5s-11.667 28.667 -15 47s-5.5 40.333 -6.5 66s-1.5 57.167 -1.5 94.5s0.5 68.833 1.5 94.5
s3.16699 47.667 6.5 66s8.33301 34 15 47s15.667 25.167 27 36.5c15.333 16 33.833 28.333 55.5 37s44.167 13 67.5 13c44.667 0 81.667 -13 111 -39s48.666 -61 57.999 -105h78c-6 33.333 -16.167 63.166 -30.5 89.499s-32.333 48.5 -54 66.5s-46.167 31.833 -73.5 41.5
s-57 14.5 -89 14.5c-35.333 0 -68.5 -6.33301 -99.5 -19s-58.5 -31 -82.5 -55c-16.667 -16.667 -29.5 -34 -38.5 -52s-15.667 -38.167 -20 -60.5s-6.83301 -47.666 -7.5 -75.999s-1 -61.5 -1 -99.5s0.333008 -71.167 1 -99.5s3.16699 -53.666 7.5 -75.999s11 -42.5 20 -60.5
s21.833 -35.333 38.5 -52c24 -24 51.5 -42.333 82.5 -55s64.167 -19 99.5 -19c32 0 61.667 4.83301 89 14.5s51.833 23.5 73.5 41.5s39.667 40.167 54 66.5s24.5 56.166 30.5 89.499z" />
    <glyph glyph-name="D" unicode="D" horiz-adv-x="673" 
d="M597 364c0 24.667 -0.166992 49.8369 -0.5 75.5039s-2.5 50.667 -6.5 75s-10.833 47.666 -20.5 69.999s-23.834 42.833 -42.501 61.5c-21.333 21.333 -47.333 37.666 -78 48.999s-64.667 17 -102 17h-244v-712h244c37.333 0 71.333 5.66699 102 17
s56.667 27.666 78 48.999c18.667 18.667 32.834 40 42.501 64s16.5 49.167 20.5 75.5s6.16699 53.166 6.5 80.499s0.5 53.333 0.5 78zM521 364.003c0 -22 -0.166992 -44.666 -0.5 -67.999s-1.83301 -45.833 -4.5 -67.5s-7.33398 -42 -14.001 -61s-16 -34.833 -28 -47.5
c-18.667 -19.333 -39.667 -32.833 -63 -40.5s-49 -11.5 -77 -11.5h-155v576h155c28 0 53.667 -3.83301 77 -11.5s44.333 -21.167 63 -40.5c12 -12.667 21.333 -27.667 28 -45s11.334 -35.833 14.001 -55.5s4.16699 -40.334 4.5 -62.001s0.5 -43.5 0.5 -65.5z" />
    <glyph glyph-name="E" unicode="E" horiz-adv-x="600" 
d="M545 0v68h-366v257h312v68h-312v251h366v68h-442v-712h442z" />
    <glyph glyph-name="F" unicode="F" horiz-adv-x="580" 
d="M545 644v68h-442v-712h76v314h312v68h-312v262h366z" />
    <glyph glyph-name="G" unicode="G" horiz-adv-x="650" 
d="M576 260l0.000976562 112.997h-251v-67h175v-54c0 -28 -3 -52.167 -9 -72.5s-16.333 -39.166 -31 -56.499c-16.667 -20 -36.834 -35.167 -60.501 -45.5s-48.5 -15.5 -74.5 -15.5c-23.333 0 -45.833 4.33301 -67.5 13s-40.167 21 -55.5 37
c-11.333 11.333 -20.333 23.5 -27 36.5s-11.667 28.667 -15 47s-5.5 40.333 -6.5 66s-1.5 57.167 -1.5 94.5s0.5 68.833 1.5 94.5s3.16699 47.5 6.5 65.5s8.33301 33.5 15 46.5s15.667 25.167 27 36.5c15.333 16 33.833 28.5 55.5 37.5s44.167 13.5 67.5 13.5
c44.667 0 82.167 -12.833 112.5 -38.5s50.5 -61.167 60.5 -106.5h76c-5.33301 31.333 -14.833 60 -28.5 86s-31.167 48.5 -52.5 67.5s-46.166 33.667 -74.499 44s-59.5 15.5 -93.5 15.5c-72 0 -132.667 -24.667 -182 -74c-16.667 -16.667 -29.5 -34 -38.5 -52
s-15.667 -38.167 -20 -60.5s-6.83301 -47.666 -7.5 -75.999s-1 -61.5 -1 -99.5s0.333008 -71.167 1 -99.5s3.16699 -53.666 7.5 -75.999s11 -42.5 20 -60.5s21.833 -35.333 38.5 -52c24 -24 51.5 -42.333 82.5 -55s64.167 -19 99.5 -19c36.667 0 71.167 6.83301 103.5 20.5
s61.166 34.167 86.499 61.5c22 23.333 37.667 49.5 47 78.5s14 64.167 14 105.5z" />
    <glyph glyph-name="H" unicode="H" horiz-adv-x="696" 
d="M593 0v712h-76v-319h-338v319h-76v-712h76v325h338v-325h76z" />
    <glyph glyph-name="I" unicode="I" horiz-adv-x="282" 
d="M179 0v712h-76v-712h76z" />
    <glyph glyph-name="J" unicode="J" horiz-adv-x="501" 
d="M408 216l-0.000976562 496h-76v-486c0 -52.667 -12.667 -93.167 -38 -121.5s-61.333 -42.5 -108 -42.5c-29.333 0 -52.166 4.5 -68.499 13.5s-30.833 20.167 -43.5 33.5l-51 -51c22 -22 46.167 -38.167 72.5 -48.5s56.5 -15.5 90.5 -15.5
c32.667 0 62.5 5.16699 89.5 15.5s50.333 25 70 44s35 42.333 46 70s16.5 58.5 16.5 92.5z" />
    <glyph glyph-name="K" unicode="K" horiz-adv-x="650" 
d="M636 0l-256 437l224 275h-93l-332 -409v409h-76v-712h76v199l150 180l217 -379h90z" />
    <glyph glyph-name="L" unicode="L" horiz-adv-x="573" 
d="M543 0v68h-364v644h-76v-712h440z" />
    <glyph glyph-name="M" unicode="M" horiz-adv-x="816" 
d="M713 0v712h-76l-226 -505l-232 505h-76v-712h76v541l198 -429h65l195 429v-541h76z" />
    <glyph glyph-name="N" unicode="N" horiz-adv-x="732" 
d="M629 0v712h-76v-569l-378 569h-72v-712h76v571l378 -571h72z" />
    <glyph glyph-name="O" unicode="O" horiz-adv-x="650" 
d="M574 356c0 38 -0.333008 71.167 -1 99.5s-3.16699 53.666 -7.5 75.999s-11 42.5 -20 60.5s-21.833 35.333 -38.5 52c-49.333 49.333 -110 74 -182 74s-132.667 -24.667 -182 -74c-16.667 -16.667 -29.5 -34 -38.5 -52s-15.667 -38.167 -20 -60.5
s-6.83301 -47.666 -7.5 -75.999s-1 -61.5 -1 -99.5s0.333008 -71.167 1 -99.5s3.16699 -53.666 7.5 -75.999s11 -42.5 20 -60.5s21.833 -35.333 38.5 -52c49.333 -49.333 110 -74 182 -74c36 0 69.333 6.33301 100 19s58 31 82 55c16.667 16.667 29.5 34 38.5 52
s15.667 38.167 20 60.5s6.83301 47.666 7.5 75.999s1 61.5 1 99.5zM498 356c0 -37.333 -0.5 -68.833 -1.5 -94.5s-3.16699 -47.5 -6.5 -65.5s-8.33301 -33.5 -15 -46.5s-15.667 -25.167 -27 -36.5c-15.333 -16 -33.833 -28.5 -55.5 -37.5s-44.167 -13.5 -67.5 -13.5
s-45.833 4.5 -67.5 13.5s-40.167 21.5 -55.5 37.5c-11.333 11.333 -20.333 23.5 -27 36.5s-11.667 28.5 -15 46.5s-5.5 39.833 -6.5 65.5s-1.5 57.167 -1.5 94.5s0.5 68.833 1.5 94.5s3.16699 47.5 6.5 65.5s8.33301 33.5 15 46.5s15.667 25.167 27 36.5
c15.333 16 33.833 28.5 55.5 37.5s44.167 13.5 67.5 13.5s45.833 -4.5 67.5 -13.5s40.167 -21.5 55.5 -37.5c11.333 -11.333 20.333 -23.5 27 -36.5s11.667 -28.5 15 -46.5s5.5 -39.833 6.5 -65.5s1.5 -57.167 1.5 -94.5z" />
    <glyph glyph-name="P" unicode="P" horiz-adv-x="630" 
d="M588 503c0 32 -5.33301 60.833 -16 86.5s-25.667 47.667 -45 66s-42.5 32.333 -69.5 42s-56.833 14.5 -89.5 14.5h-265v-712h76v293h189c32.667 0 62.5 5 89.5 15s50.167 24 69.5 42s34.333 40 45 66s16 55 16 87zM512 503c0 -47.333 -14 -82.834 -42 -106.501
s-64.333 -35.5 -109 -35.5h-182v283h182c44.667 0 81 -11.667 109 -35s42 -58.666 42 -105.999z" />
    <glyph glyph-name="Q" unicode="Q" horiz-adv-x="649" 
d="M603 11l-78 77.999c12 15.333 21.333 31.5 28 48.5s11.5 36 14.5 57s4.83301 44.667 5.5 71s1 56.5 1 90.5c0 38 -0.333008 71.167 -1 99.5s-3.16699 53.666 -7.5 75.999s-11 42.5 -20 60.5s-21.833 35.333 -38.5 52c-49.333 49.333 -110 74 -182 74
s-132.667 -24.667 -182 -74c-16.667 -16.667 -29.5 -34 -38.5 -52s-15.667 -38.167 -20 -60.5s-6.83301 -47.666 -7.5 -75.999s-1 -61.5 -1 -99.5s0.333008 -71.167 1 -99.5s3.16699 -53.666 7.5 -75.999s11 -42.5 20 -60.5s21.833 -35.333 38.5 -52
c49.333 -49.333 110 -74 182 -74c58.667 0 109.667 16.667 153 50l79 -79zM498 355.999c0 -28.667 -0.332031 -53.832 -0.999023 -75.499s-2 -40.667 -4 -57s-4.83301 -30.833 -8.5 -43.5s-8.83398 -24.334 -15.501 -35.001l-87 87l-46 -46l90 -90
c-30 -22.667 -63.667 -34 -101 -34c-23.333 0 -45.833 4.5 -67.5 13.5s-40.167 21.5 -55.5 37.5c-11.333 11.333 -20.333 23.5 -27 36.5s-11.667 28.5 -15 46.5s-5.5 39.833 -6.5 65.5s-1.5 57.167 -1.5 94.5s0.5 68.833 1.5 94.5s3.16699 47.5 6.5 65.5
s8.33301 33.5 15 46.5s15.667 25.167 27 36.5c15.333 16 33.833 28.5 55.5 37.5s44.167 13.5 67.5 13.5s45.833 -4.5 67.5 -13.5s40.167 -21.5 55.5 -37.5c11.333 -11.333 20.333 -23.5 27 -36.5s11.667 -28.5 15 -46.5s5.5 -39.833 6.5 -65.5s1.5 -57.167 1.5 -94.5z" />
    <glyph glyph-name="R" unicode="R" horiz-adv-x="656" 
d="M601 0l-169 322.999c46 9.33301 83.333 30.5 112 63.5s43 75.5 43 127.5c0 30.667 -5.16699 58.334 -15.5 83.001s-24.833 45.5 -43.5 62.5s-41 30 -67 39s-54.333 13.5 -85 13.5h-273v-712h76v316h171l162 -316h89zM511 512.999c0 -44 -13.167 -76.667 -39.5 -98
s-60.5 -32 -102.5 -32h-190v261h190c42 0 76.167 -10.833 102.5 -32.5s39.5 -54.5 39.5 -98.5z" />
    <glyph glyph-name="S" unicode="S" horiz-adv-x="588" 
d="M532 196c0 60 -20 107.003 -60 141.003c-7.33301 6.66699 -15.166 12.5 -23.499 17.5s-17.5 9.5 -27.5 13.5s-21.5 7.5 -34.5 10.5s-27.833 5.83301 -44.5 8.5l-78 12c-18.667 3.33301 -36.5 8.33301 -53.5 15s-31.167 14.667 -42.5 24c-21.333 18.667 -32 46 -32 82
c0 40 13 72 39 96s63 36 111 36c38 0 69.667 -5.16699 95 -15.5s49 -25.5 71 -45.5l49 49c-30.667 27.333 -62.334 47.166 -95.001 59.499s-71.667 18.5 -117 18.5c-35.333 0 -67 -4.83301 -95 -14.5s-51.833 -23.167 -71.5 -40.5s-34.834 -38.5 -45.501 -63.5
s-16 -52.5 -16 -82.5c0 -56.667 18 -101 54 -133c30.667 -26.667 74.334 -44.667 131.001 -54l83 -13c26 -4 45.167 -8.16699 57.5 -12.5s24.166 -11.5 35.499 -21.5s19.833 -22.667 25.5 -38s8.5 -32.333 8.5 -51c0 -42 -15 -74.5 -45 -97.5s-71 -34.5 -123 -34.5
c-40 0 -75 5.66699 -105 17s-59.667 31.666 -89 60.999l-52 -52c33.333 -33.333 69 -57.333 107 -72s83.667 -22 137 -22c36.667 0 70.167 4.66699 100.5 14s56.333 22.666 78 39.999s38.334 38.5 50.001 63.5s17.5 53.167 17.5 84.5z" />
    <glyph glyph-name="T" unicode="T" horiz-adv-x="548" 
d="M518 644v68h-488v-68h206v-644h76v644h206z" />
    <glyph glyph-name="U" unicode="U" horiz-adv-x="683" 
d="M590 235l0.00195312 477h-76v-471c0 -27.333 -4.16699 -52 -12.5 -74s-20 -40.667 -35 -56s-33.167 -27.333 -54.5 -36s-45 -13 -71 -13s-49.667 4.33301 -71 13s-39.5 20.667 -54.5 36s-26.5 34 -34.5 56s-12 46.667 -12 74v471h-76v-477
c0 -35.333 6.16699 -67.833 18.5 -97.5s29.5 -55.167 51.5 -76.5s48.167 -37.833 78.5 -49.5s63.5 -17.5 99.5 -17.5s69.167 5.83301 99.5 17.5s56.666 28.167 78.999 49.5s39.666 46.833 51.999 76.5s18.5 62.167 18.5 97.5z" />
    <glyph glyph-name="V" unicode="V" horiz-adv-x="546" 
d="M538 712h-80l-185 -576l-185 576h-80l234 -712h62z" />
    <glyph glyph-name="W" unicode="W" horiz-adv-x="854" 
d="M838 712h-81l-139 -574l-157 574h-68l-157 -574l-139 574h-81l182 -712h71l158 570l158 -570h71z" />
    <glyph glyph-name="X" unicode="X" horiz-adv-x="551" 
d="M536 0l-220 365l205 347h-88l-158 -281l-158 281h-88l204 -347l-218 -365h86l174 299l173 -299h88z" />
    <glyph glyph-name="Y" unicode="Y" horiz-adv-x="514" 
d="M506 712h-82l-166 -341l-168 341h-82l212 -418v-294h76v294z" />
    <glyph glyph-name="Z" unicode="Z" horiz-adv-x="556" 
d="M499 0v68h-359l359 580v64h-428v-68h342l-356 -572v-72h442z" />
    <glyph glyph-name="bracketleft" unicode="[" horiz-adv-x="313" 
d="M269 -74v64h-105v732h105v64h-177v-860h177z" />
    <glyph glyph-name="backslash" unicode="\" horiz-adv-x="355" 
d="M355 -74l-284 857h-71l284 -857h71z" />
    <glyph glyph-name="bracketright" unicode="]" horiz-adv-x="313" 
d="M221 -74v860h-177v-62h108v-736h-108v-62h177z" />
    <glyph glyph-name="asciicircum" unicode="^" horiz-adv-x="537" 
d="M465 413l-163 305h-66l-164 -305h74l123 228l122 -228h74z" />
    <glyph glyph-name="underscore" unicode="_" horiz-adv-x="537" 
d="M537 -165v51h-537v-51h537z" />
    <glyph glyph-name="grave" unicode="`" horiz-adv-x="500" 
d="M299 594l-88 153h-86l108 -153h66z" />
    <glyph glyph-name="a" unicode="a" horiz-adv-x="526" 
d="M441 0l0.000976562 334c0 54 -16.167 94.833 -48.5 122.5s-81.833 41.5 -148.5 41.5c-40 0 -73.5 -5 -100.5 -15s-51.5 -29.333 -73.5 -58l49 -45c14.667 20.667 31 35.167 49 43.5s43 12.5 75 12.5c45.333 0 77.666 -9 96.999 -27s29 -45 29 -81v-47h-148
c-55.333 0 -97.5 -12.833 -126.5 -38.5s-43.5 -60.167 -43.5 -103.5c0 -19.333 3.16699 -37.833 9.5 -55.5s15.5 -32.5 27.5 -44.5c15.333 -16 33.833 -27.5 55.5 -34.5s49.5 -10.5 83.5 -10.5c32.667 0 59.5 3.83301 80.5 11.5s41.5 21.5 61.5 41.5v-47h72zM369.001 174
c0 -40.667 -8.33496 -69.002 -25.002 -85.002c-15.333 -15.333 -32.166 -24.666 -50.499 -27.999s-38.166 -5 -59.499 -5c-39.333 0 -68 6.83301 -86 20.5s-27 34.834 -27 63.501c0 58 36.667 87 110 87h138v-53z" />
    <glyph glyph-name="b" unicode="b" horiz-adv-x="545" 
d="M481 246c0 19.333 -0.833008 38.6689 -2.5 58.002s-4.66699 38.166 -9 56.499s-10.333 35.5 -18 51.5s-17.834 30.333 -30.501 43c-13.333 13.333 -30.333 23.833 -51 31.5s-43.667 11.5 -69 11.5c-27.333 0 -52.333 -4.16699 -75 -12.5s-44 -25.166 -64 -50.499v277h-72
v-712h72v59c20 -26 41.333 -43.333 64 -52s47.667 -13 75 -13c25.333 0 48.333 3.83301 69 11.5s37.667 18.167 51 31.5c12.667 12.667 22.834 27 30.501 43s13.667 33.167 18 51.5s7.33301 37.166 9 56.499s2.5 38.666 2.5 57.999zM409 246.003
c0 -24 -1.33301 -47.333 -4 -70s-8.33398 -42.667 -17.001 -60s-21.167 -31.333 -37.5 -42s-37.833 -16 -64.5 -16s-48.167 5.33301 -64.5 16s-28.833 24.667 -37.5 42s-14.5 37.333 -17.5 60s-4.5 46 -4.5 70s1.5 47.333 4.5 70s8.83301 42.667 17.5 60
s21.167 31.333 37.5 42s37.833 16 64.5 16s48.167 -5.33301 64.5 -16s28.833 -24.667 37.5 -42s14.334 -37.333 17.001 -60s4 -46 4 -70z" />
    <glyph glyph-name="c" unicode="c" horiz-adv-x="490" 
d="M443 67l-49 47.002c-18.667 -20.667 -36.334 -35.167 -53.001 -43.5s-36.667 -12.5 -60 -12.5c-24 0 -45.667 4.66699 -65 14s-35.666 23.333 -48.999 42c-11.333 16 -19.5 34.167 -24.5 54.5s-7.5 46.166 -7.5 77.499s2.5 57.166 7.5 77.499s13.167 38.5 24.5 54.5
c13.333 18.667 29.666 32.667 48.999 42s41 14 65 14c23.333 0 43.333 -4 60 -12s34.334 -22.333 53.001 -43l49 46c-25.333 27.333 -50.166 46.333 -74.499 57s-53.5 16 -87.5 16c-31.333 0 -60.166 -5.33301 -86.499 -16s-49.333 -26.5 -69 -47.5s-35 -47.167 -46 -78.5
s-16.5 -68 -16.5 -110s5.5 -78.833 16.5 -110.5s26.333 -58 46 -79s42.667 -36.667 69 -47s55.166 -15.5 86.499 -15.5c34 0 63.167 5.33301 87.5 16s49.166 29.667 74.499 57z" />
    <glyph glyph-name="d" unicode="d" horiz-adv-x="545" 
d="M455 0v711.997h-72v-277c-20 25.333 -41.333 42.166 -64 50.499s-47.667 12.5 -75 12.5c-25.333 0 -48.333 -3.83301 -69 -11.5s-37.667 -18.167 -51 -31.5c-12.667 -12.667 -22.834 -27 -30.501 -43s-13.667 -33.167 -18 -51.5s-7.33301 -37.166 -9 -56.499
s-2.5 -38.666 -2.5 -57.999s0.833008 -38.666 2.5 -57.999s4.66699 -38.166 9 -56.499s10.333 -35.5 18 -51.5s17.834 -30.333 30.501 -43c13.333 -13.333 30.333 -23.833 51 -31.5s43.667 -11.5 69 -11.5c27.333 0 52.5 4.33301 75.5 13s44.5 26 64.5 52v-59h71z
M383 245.997c0 -24 -1.33301 -47.333 -4 -70s-8.33398 -42.667 -17.001 -60s-21.167 -31.333 -37.5 -42s-37.833 -16 -64.5 -16s-48.167 5.33301 -64.5 16s-28.833 24.667 -37.5 42s-14.5 37.333 -17.5 60s-4.5 46 -4.5 70s1.5 47.333 4.5 70s8.83301 42.667 17.5 60
s21.167 31.333 37.5 42s37.833 16 64.5 16s48.167 -5.33301 64.5 -16s28.833 -24.667 37.5 -42s14.334 -37.333 17.001 -60s4 -46 4 -70z" />
    <glyph glyph-name="e" unicode="e" horiz-adv-x="530" 
d="M467 227v33.0029c0 73.333 -17.667 131.333 -53 174s-85 64 -149 64c-62.667 0 -112 -22 -148 -66s-54 -106 -54 -186c0 -43.333 5.16699 -80.833 15.5 -112.5s24.833 -57.834 43.5 -78.501s41.167 -36 67.5 -46s55.833 -15 88.5 -15c20.667 0 39.5 1.66699 56.5 5
s32.5 8.16602 46.5 14.499s27.167 14.166 39.5 23.499s24.833 20.333 37.5 33l-49 43c-19.333 -19.333 -38.5 -33.5 -57.5 -42.5s-42.833 -13.5 -71.5 -13.5c-47.333 0 -83.333 14.833 -108 44.5s-37 71.5 -37 125.5h332zM395 281.003l-260.002 0.000976562
c0.666992 20 2 35.333 4 46s5.66699 22.667 11 36c9.33301 22.667 24.333 40.667 45 54s44 20 70 20s49.333 -6.66699 70 -20s35.667 -31.333 45 -54c2.66699 -6.66699 4.83398 -12.834 6.50098 -18.501s3 -11.5 4 -17.5s1.83301 -12.667 2.5 -20s1.33398 -16 2.00098 -26z
" />
    <glyph glyph-name="f" unicode="f" horiz-adv-x="314" 
d="M283 434v54.999h-105v91c0 22.667 5.16699 40.334 15.5 53.001s27.166 19 50.499 19h39v62h-52c-21.333 0 -39.666 -3.5 -54.999 -10.5s-28.333 -16.5 -39 -28.5s-18.5 -26 -23.5 -42s-7.5 -33 -7.5 -51v-93h-63v-55h63v-434h72v434h105z" />
    <glyph glyph-name="g" unicode="g" horiz-adv-x="543" 
d="M453 -15v506.993h-71v-58c-20 26 -41.167 43.167 -63.5 51.5s-47.166 12.5 -74.499 12.5c-25.333 0 -48.333 -3.83301 -69 -11.5s-37.667 -18.167 -51 -31.5c-24.667 -24.667 -40.834 -55 -48.501 -91s-11.5 -74 -11.5 -114s3.83301 -78 11.5 -114
s23.834 -66.333 48.501 -91c13.333 -13.333 30.166 -24 50.499 -32s43.166 -12 68.499 -12c26.667 0 51.334 4.33301 74.001 13s44 25.667 64 51v-77c0 -21.333 -2.5 -41.166 -7.5 -59.499s-13 -34.166 -24 -47.499s-25 -24 -42 -32s-37.5 -12 -61.5 -12
c-14 0 -26.333 1 -37 3s-20.5 5.16699 -29.5 9.5s-17.667 9.5 -26 15.5s-16.833 13 -25.5 21l-47 -46c12.667 -12 25.167 -22.167 37.5 -30.5s25 -15.166 38 -20.499s26.833 -9.16602 41.5 -11.499s31.334 -3.5 50.001 -3.5c32 0 60.833 5.33301 86.5 16
s47.167 25.334 64.5 44.001s30.666 40.834 39.999 66.501s14 53.834 14 84.501zM381 249.993c0 -23.333 -1.33301 -46 -4 -68s-8.33398 -41.5 -17.001 -58.5s-21 -30.833 -37 -41.5s-37.333 -16 -64 -16s-48.167 5.33301 -64.5 16s-28.833 24.5 -37.5 41.5
s-14.334 36.5 -17.001 58.5s-4 44.667 -4 68c0 22.667 1.33301 45.167 4 67.5s8.33398 42 17.001 59s21.167 30.833 37.5 41.5s37.833 16 64.5 16s48 -5.33301 64 -16s28.333 -24.5 37 -41.5s14.334 -36.667 17.001 -59s4 -44.833 4 -67.5z" />
    <glyph glyph-name="h" unicode="h" horiz-adv-x="562" 
d="M477 0l0.00195312 316c0 56 -15.5 100.333 -46.5 133s-74.5 49 -130.5 49c-56.667 0 -102.667 -20 -138 -60v274h-72v-712h72v304c0 42.667 11.167 75 33.5 97s52.166 33 89.499 33s66.666 -10.833 87.999 -32.5s32 -54.167 32 -97.5v-304h72z" />
    <glyph glyph-name="i" unicode="i" horiz-adv-x="253" 
d="M167 632v81h-81v-81h81zM162 0v492h-72v-492h72z" />
    <glyph glyph-name="j" unicode="j" horiz-adv-x="253" 
d="M167 632v81h-81v-81h81zM162 -89l-0.000976562 578h-72v-575c0 -24 -4.66699 -42 -14 -54s-26.666 -18 -51.999 -18h-39v-63h52c21.333 0 39.833 3.33301 55.5 10s28.667 16 39 28s18 26 23 42s7.5 33.333 7.5 52z" />
    <glyph glyph-name="k" unicode="k" horiz-adv-x="536" 
d="M503 0l-196 304l167 188h-90l-222 -256v476h-72v-712h72v142l96 110l156 -252h89z" />
    <glyph glyph-name="l" unicode="l" horiz-adv-x="297" 
d="M265 0l-0.000976562 62h-39c-25.333 0 -42.666 6 -51.999 18s-14 30 -14 54v578h-72v-581c0 -37.333 10 -68.5 30 -93.5s51.667 -37.5 95 -37.5h52z" />
    <glyph glyph-name="m" unicode="m" horiz-adv-x="879" 
d="M794 0v315.001c0 57.333 -17.667 103 -53 137c-15.333 14.667 -33.666 26 -54.999 34s-45.333 12 -72 12c-69.333 0 -123.333 -27.333 -162 -82c-15.333 27.333 -35.833 47.833 -61.5 61.5s-55.5 20.5 -89.5 20.5c-28 0 -53.833 -5 -77.5 -15s-44.167 -25 -61.5 -45v54
h-72v-492h72v303c0 43.333 11.167 76 33.5 98s52.166 33 89.499 33s66.833 -10.833 88.5 -32.5s32.5 -54.5 32.5 -98.5v-303h72v311c0 39.333 11.5 69.666 34.5 90.999s52.5 32 88.5 32c37.333 0 66.833 -10.833 88.5 -32.5s32.5 -54.5 32.5 -98.5v-303h72z" />
    <glyph glyph-name="n" unicode="n" horiz-adv-x="562" 
d="M477 0l-0.000976562 315c0 58 -17 103.667 -51 137c-30.667 30.667 -72.667 46 -126 46c-28 0 -53.667 -5 -77 -15s-43.666 -25 -60.999 -45v54h-72v-492h72v303c0 43.333 11 76 33 98s51.667 33 89 33s66.833 -10.833 88.5 -32.5s32.5 -54.5 32.5 -98.5v-303h72z" />
    <glyph glyph-name="o" unicode="o" horiz-adv-x="530" 
d="M466 246c0 38 -3.83301 73.832 -11.5 107.499s-23.834 63.167 -48.501 88.5c-17.333 17.333 -37.666 31 -60.999 41s-50 15 -80 15s-56.667 -5 -80 -15s-43.666 -23.667 -60.999 -41c-12.667 -12.667 -22.834 -26.5 -30.501 -41.5s-13.667 -30.667 -18 -47
s-7.33301 -33.666 -9 -51.999s-2.5 -36.833 -2.5 -55.5c0 -19.333 0.833008 -38 2.5 -56s4.66699 -35.167 9 -51.5s10.333 -32 18 -47s17.834 -28.833 30.501 -41.5c17.333 -17.333 37.666 -31 60.999 -41s50 -15 80 -15s56.667 5 80 15s43.666 23.667 60.999 41
c24.667 25.333 40.834 54.833 48.501 88.5s11.5 69.5 11.5 107.5zM394 245.999c0 -14 -0.333008 -28 -1 -42s-2.33398 -27.667 -5.00098 -41s-6.66699 -26 -12 -38s-12.333 -22.333 -21 -31c-24 -24 -54 -36 -90 -36c-35.333 0 -65 12 -89 36
c-9.33301 8.66699 -16.5 19 -21.5 31s-9 24.667 -12 38s-4.83301 27 -5.5 41s-1 28 -1 42s0.333008 28 1 42s2.5 27.667 5.5 41s7 25.833 12 37.5s12.167 22.167 21.5 31.5c24 24 53.667 36 89 36c36 0 66 -12 90 -36c8.66699 -9.33301 15.667 -19.833 21 -31.5
s9.33301 -24.167 12 -37.5s4.33398 -27 5.00098 -41s1 -28 1 -42z" />
    <glyph glyph-name="p" unicode="p" horiz-adv-x="545" 
d="M481 246c0 19.333 -0.833008 38.6699 -2.5 58.0029s-4.66699 38.166 -9 56.499s-10.333 35.5 -18 51.5s-17.834 30.333 -30.501 43c-13.333 13.333 -30.333 23.833 -51 31.5s-43.667 11.5 -69 11.5c-27.333 0 -52.333 -4.16699 -75 -12.5s-44 -25.5 -64 -51.5v58h-72
v-712h72v278c20 -25.333 41.333 -42.333 64 -51s47.667 -13 75 -13c25.333 0 48.333 3.83301 69 11.5s37.667 18.167 51 31.5c12.667 12.667 22.834 27 30.501 43s13.667 33.167 18 51.5s7.33301 37.166 9 56.499s2.5 38.666 2.5 57.999zM409 246.004
c0 -24 -1.33301 -47.333 -4 -70s-8.33398 -42.667 -17.001 -60s-21.167 -31.333 -37.5 -42s-37.833 -16 -64.5 -16s-48.167 5.33301 -64.5 16s-28.833 24.667 -37.5 42s-14.5 37.333 -17.5 60s-4.5 46 -4.5 70s1.5 47.333 4.5 70s8.83301 42.667 17.5 60
s21.167 31.333 37.5 42s37.833 16 64.5 16s48.167 -5.33301 64.5 -16s28.833 -24.667 37.5 -42s14.334 -37.333 17.001 -60s4 -46 4 -70z" />
    <glyph glyph-name="q" unicode="q" horiz-adv-x="545" 
d="M455 -220v711.996h-71v-58c-20 26 -41.5 43.167 -64.5 51.5s-48.167 12.5 -75.5 12.5c-25.333 0 -48.333 -3.83301 -69 -11.5s-37.667 -18.167 -51 -31.5c-12.667 -12.667 -22.834 -27 -30.501 -43s-13.667 -33.167 -18 -51.5s-7.33301 -37.166 -9 -56.499
s-2.5 -38.666 -2.5 -57.999s0.833008 -38.666 2.5 -57.999s4.66699 -38.166 9 -56.499s10.333 -35.5 18 -51.5s17.834 -30.333 30.501 -43c13.333 -13.333 30.333 -23.833 51 -31.5s43.667 -11.5 69 -11.5c27.333 0 52.333 4.33301 75 13s44 25.667 64 51v-278h72z
M383 245.996c0 -24 -1.33301 -47.333 -4 -70s-8.33398 -42.667 -17.001 -60s-21.167 -31.333 -37.5 -42s-37.833 -16 -64.5 -16s-48.167 5.33301 -64.5 16s-28.833 24.667 -37.5 42s-14.5 37.333 -17.5 60s-4.5 46 -4.5 70s1.5 47.333 4.5 70s8.83301 42.667 17.5 60
s21.167 31.333 37.5 42s37.833 16 64.5 16s48.167 -5.33301 64.5 -16s28.833 -24.667 37.5 -42s14.334 -37.333 17.001 -60s4 -46 4 -70z" />
    <glyph glyph-name="r" unicode="r" horiz-adv-x="421" 
d="M418 452c-17.333 17.333 -35.5 29.333 -54.5 36s-40.167 10 -63.5 10c-28.667 0 -55.5 -5.83301 -80.5 -17.5s-44.167 -27.834 -57.5 -48.501v60h-72v-492h72v302c0 18.667 2.83301 36 8.5 52s13.5 30 23.5 42s22.333 21.333 37 28s31 10 49 10
c19.333 0 35 -2.66699 47 -8s24.667 -14.666 38 -27.999z" />
    <glyph glyph-name="s" unicode="s" horiz-adv-x="496" 
d="M445 144c0 22.667 -3.5 42 -10.5 58s-16.833 29.333 -29.5 40s-28 18.667 -46 24s-37.667 9 -59 11l-79 7c-31.333 2.66699 -53.5 10 -66.5 22s-19.5 28.667 -19.5 50c0 25.333 9.33301 45.166 28 59.499s46 21.5 82 21.5c25.333 0 49.166 -3.16699 71.499 -9.5
s42.166 -16.166 59.499 -29.499l47 47c-22 18 -48.167 31.333 -78.5 40s-63.166 13 -98.499 13c-26 0 -50.167 -3.33301 -72.5 -10s-41.5 -16.167 -57.5 -28.5s-28.5 -27.333 -37.5 -45s-13.5 -37.834 -13.5 -60.501c0 -40.667 12.5 -71.834 37.5 -93.501
s61.5 -34.5 109.5 -38.5l81 -7c28.667 -2.66699 49.5 -10 62.5 -22s19.5 -28.667 19.5 -50c0 -29.333 -11.667 -51.166 -35 -65.499s-55.333 -21.5 -96 -21.5c-30.667 0 -59 4.33301 -85 13s-48.667 23.334 -68 44.001l-48 -48c27.333 -26 57.333 -44.333 90 -55
s70 -16 112 -16c30 0 57.167 3.33301 81.5 10s45.333 16.5 63 29.5s31.334 28.667 41.001 47s14.5 39.5 14.5 63.5z" />
    <glyph glyph-name="t" unicode="t" horiz-adv-x="332" 
d="M279 0l0.000976562 61.999h-38c-23.333 0 -40.333 6.33301 -51 19s-16 30.334 -16 53.001v300h105v55h-105v154h-72v-154h-62v-55h62v-302c0 -18 2.66699 -35 8 -51s13.166 -30 23.499 -42s23.333 -21.5 39 -28.5s34.167 -10.5 55.5 -10.5h51z" />
    <glyph glyph-name="u" unicode="u" horiz-adv-x="562" 
d="M472 0l-0.00195312 492h-72v-303c0 -43.333 -11.167 -76 -33.5 -98s-52.166 -33 -89.499 -33s-66.666 10.833 -87.999 32.5s-32 54.5 -32 98.5v303h-72v-314c0 -28.667 4 -54.5 12 -77.5s20.667 -43.167 38 -60.5c30.667 -30.667 73 -46 127 -46
c28 0 53.833 5.16699 77.5 15.5s44.167 25.5 61.5 45.5v-55h71z" />
    <glyph glyph-name="v" unicode="v" horiz-adv-x="447" 
d="M436 492h-78l-135 -395l-134 395h-78l180 -492h64z" />
    <glyph glyph-name="w" unicode="w" horiz-adv-x="724" 
d="M713 492h-78l-112 -395l-130 395h-62l-129 -395l-113 395h-78l156 -492h67l128 382l129 -382h67z" />
    <glyph glyph-name="x" unicode="x" horiz-adv-x="478" 
d="M445 0l-167 251l160 241h-87l-111 -182l-113 182h-87l160 -241l-167 -251h87l120 191l118 -191h87z" />
    <glyph glyph-name="y" unicode="y" horiz-adv-x="447" 
d="M436 492h-77.999l-134 -395l-135 395h-78l177 -482l-35 -96c-8 -22.667 -17.333 -38.5 -28 -47.5s-28.334 -13.5 -53.001 -13.5h-22v-64h31c17.333 0 34.333 2.5 51 7.5s31.667 13.833 45 26.5c14 12.667 25.667 32 35 58z" />
    <glyph glyph-name="z" unicode="z" horiz-adv-x="459" 
d="M407 0v64h-275l275 367v61h-342v-64h259l-274 -366v-62h357z" />
    <glyph glyph-name="braceleft" unicode="{" horiz-adv-x="354" 
d="M305 -74v64h-23c-17.333 0 -30.166 0.833008 -38.499 2.5s-15.166 5.16699 -20.499 10.5s-9 13 -11 23s-3 24 -3 42v188c0 28.667 -5.66699 50.167 -17 64.5s-26.666 26.166 -45.999 35.499c19.333 9.33301 34.666 21.166 45.999 35.499s17 35.833 17 64.5v188
c0 18 1 32 3 42s5.66699 17.667 11 23s12.166 8.83301 20.499 10.5s21.166 2.5 38.499 2.5h23v64h-37c-25.333 0 -45.833 -2.33301 -61.5 -7s-28.834 -12.334 -39.501 -23.001c-11.333 -11.333 -19.166 -24.166 -23.499 -38.499s-6.5 -34.5 -6.5 -60.5v-191
c0 -28 -6 -48 -18 -60c-5.33301 -5.33301 -11.833 -9.66602 -19.5 -12.999s-16.167 -5 -25.5 -5h-26v-64h26c9.33301 0 17.833 -1.66699 25.5 -5s14.167 -7.66602 19.5 -12.999c12 -12 18 -32 18 -60v-191c0 -26 2.16699 -46.167 6.5 -60.5s12.166 -27.166 23.499 -38.499
c10.667 -10.667 23.834 -18.334 39.501 -23.001s36.167 -7 61.5 -7h37z" />
    <glyph glyph-name="bar" unicode="|" horiz-adv-x="326" 
d="M199 -74v860h-72v-860h72z" />
    <glyph glyph-name="braceright" unicode="}" horiz-adv-x="354" 
d="M305 324v64h-25c-9.33301 0 -17.833 1.66699 -25.5 5s-14.167 7.66602 -19.5 12.999c-12 12 -18 32 -18 60v191c0 26 -2.16699 46.167 -6.5 60.5s-12.166 27.166 -23.499 38.499c-10.667 10.667 -23.834 18.334 -39.501 23.001s-36.167 7 -61.5 7h-38v-64h24
c17.333 0 30 -0.833008 38 -2.5s14.667 -5.16699 20 -10.5s9.16602 -13 11.499 -23s3.5 -24 3.5 -42v-188c0 -28.667 5.66699 -50.167 17 -64.5s26.666 -26.166 45.999 -35.499c-19.333 -9.33301 -34.666 -21.166 -45.999 -35.499s-17 -35.833 -17 -64.5v-188
c0 -18 -1.16699 -32 -3.5 -42s-6.16602 -17.667 -11.499 -23s-12 -8.83301 -20 -10.5s-20.667 -2.5 -38 -2.5h-24v-64h38c25.333 0 45.833 2.33301 61.5 7s28.834 12.334 39.501 23.001c11.333 11.333 19.166 24.166 23.499 38.499s6.5 34.5 6.5 60.5v191c0 28 6 48 18 60
c5.33301 5.33301 11.833 9.66602 19.5 12.999s16.167 5 25.5 5h25z" />
    <glyph glyph-name="asciitilde" unicode="~" horiz-adv-x="539" 
d="M490 278l-45 45c-10 -10 -18.667 -17.833 -26 -23.5s-14.166 -10.167 -20.499 -13.5s-12.5 -5.5 -18.5 -6.5s-12.333 -1.5 -19 -1.5c-13.333 0 -26.166 2.33301 -38.499 7s-25.5 10.334 -39.5 17.001c-19.333 8.66699 -37.333 16 -54 22s-33.667 9 -51 9
c-11.333 0 -21.833 -1 -31.5 -3s-19.334 -5.5 -29.001 -10.5s-20 -11.833 -31 -20.5s-23.5 -20 -37.5 -34l44 -45c10 10 18.667 17.833 26 23.5s14.166 10.167 20.499 13.5s12.333 5.5 18 6.5s12.167 1.5 19.5 1.5c13.333 0 26.166 -2.33301 38.499 -7
s25.5 -10.334 39.5 -17.001c19.333 -8.66699 37.5 -16 54.5 -22s34.167 -9 51.5 -9c11.333 0 21.833 0.833008 31.5 2.5s19.334 5 29.001 10s20 12 31 21s23.5 20.5 37.5 34.5z" />
    <glyph glyph-name="nonbreakingspace" unicode="&#xa0;" horiz-adv-x="249" 
 />
    <glyph glyph-name="exclamdown" unicode="&#xa1;" horiz-adv-x="316" 
d="M185 408v84h-86v-84h86zM184 -220l-11 512h-62l-10 -512h83z" />
    <glyph glyph-name="cent" unicode="&#xa2;" horiz-adv-x="498" 
d="M448 189l-49 46c-16.667 -18.667 -32.5 -32.167 -47.5 -40.5s-32.5 -13.166 -52.5 -14.499v372c20 -1.33301 37.5 -6.16602 52.5 -14.499s30.833 -21.833 47.5 -40.5l49 46c-23.333 25.333 -45.833 43.5 -67.5 54.5s-47.5 17.5 -77.5 19.5v95h-59v-97
c-55.333 -8 -99.333 -33.333 -132 -76s-49 -100.334 -49 -173.001s16.333 -130.334 49 -173.001s76.667 -68 132 -76v-117h59v115c30 2 55.833 8.5 77.5 19.5s44.167 29.167 67.5 54.5zM248 182c-32.667 6 -59.334 23.335 -80.001 52.002
c-11.333 16 -19.666 34.167 -24.999 54.5s-8 46.166 -8 77.499s2.66699 57.166 8 77.499s13.666 38.5 24.999 54.5c20.667 28.667 47.334 46 80.001 52v-368z" />
    <glyph glyph-name="sterling" unicode="&#xa3;" horiz-adv-x="548" 
d="M496 0l-0.00195312 68h-309v262h146v54h-146v102c0 52.667 12.667 93.167 38 121.5s61.333 42.5 108 42.5c14.667 0 27.5 -1.16699 38.5 -3.5s20.833 -5.66602 29.5 -9.99902s16.334 -9.33301 23.001 -15s13.334 -11.834 20.001 -18.501l52 51
c-22 22 -46.167 38.167 -72.5 48.5s-56.5 15.5 -90.5 15.5c-32.667 0 -62.667 -5.16699 -90 -15.5s-50.833 -25 -70.5 -44s-35 -42.333 -46 -70s-16.5 -58.5 -16.5 -92.5v-112h-63v-54h63v-330h386z" />
    <glyph glyph-name="currency" unicode="&#xa4;" horiz-adv-x="660" 
d="M582 65l-74 74c13.333 18 24 38.167 32 60.5s12 46.166 12 71.499s-4 49.166 -12 71.499s-18.667 42.5 -32 60.5l74 73l-46 46l-75 -73c-18 13.333 -38 23.833 -60 31.5s-45.667 11.5 -71 11.5s-49.166 -3.83301 -71.499 -11.5s-42.5 -18.167 -60.5 -31.5l-74 73l-46 -46
l74 -73c-13.333 -18 -24 -38.167 -32 -60.5s-12 -46.166 -12 -71.499s4 -49.166 12 -71.499s18.667 -42.5 32 -60.5l-74 -74l46 -46l74 74c18 -13.333 38.167 -24 60.5 -32s46.166 -12 71.499 -12s49 4 71 12s42 18.667 60 32l75 -74zM485 271c0 -21.333 -4 -41.5 -12 -60.5
s-19 -35.5 -33 -49.5s-30.5 -25.167 -49.5 -33.5s-39.167 -12.5 -60.5 -12.5s-41.5 4.16699 -60.5 12.5s-35.5 19.5 -49.5 33.5s-25.167 30.5 -33.5 49.5s-12.5 39.167 -12.5 60.5s4.16699 41.5 12.5 60.5s19.5 35.5 33.5 49.5s30.5 25 49.5 33s39.167 12 60.5 12
s41.5 -4 60.5 -12s35.5 -19 49.5 -33s25 -30.5 33 -49.5s12 -39.167 12 -60.5z" />
    <glyph glyph-name="yen" unicode="&#xa5;" horiz-adv-x="514" 
d="M506 712h-81l-167 -341l-168 341h-82l157 -311h-100v-54h128l26 -53v-52h-154v-55h154v-187h77v187h153v55h-153v52l26 53h127v54h-100z" />
    <glyph glyph-name="brokenbar" unicode="&#xa6;" horiz-adv-x="335" 
d="M199 436v350h-72v-350h72zM199 -74v350h-72v-350h72z" />
    <glyph glyph-name="section" unicode="&#xa7;" horiz-adv-x="557" 
d="M470 254c0 45.333 -11.833 83.999 -35.5 115.999s-57.5 54.333 -101.5 67l-78 22c-25.333 7.33301 -45.666 18.5 -60.999 33.5s-23 35.833 -23 62.5c0 32.667 9.5 57.334 28.5 74.001s45.5 25 79.5 25c32 0 57.667 -7.16699 77 -21.5s30.333 -38.166 33 -71.499h72
c-1.33301 24 -6.66602 45.833 -15.999 65.5s-22 36.167 -38 49.5s-34.833 23.666 -56.5 30.999s-45.5 11 -71.5 11s-50 -4 -72 -12s-41 -19.167 -57 -33.5s-28.5 -31.666 -37.5 -51.999s-13.5 -42.5 -13.5 -66.5c0 -36.667 8.33301 -65.5 25 -86.5
s39.334 -38.167 68.001 -51.5c-13.333 -6.66699 -26.333 -15 -39 -25s-23.834 -22 -33.501 -36s-17.5 -29.5 -23.5 -46.5s-9 -35.833 -9 -56.5c0 -46 11.833 -84.833 35.5 -116.5s57.5 -53.834 101.5 -66.501l78 -22c28 -8 49.667 -21.167 65 -39.5s23 -39.166 23 -62.499
c0 -34 -10 -60 -30 -78s-47 -27 -81 -27s-61 8 -81 24s-31.667 39.667 -35 71h-73c1.33301 -26.667 7.33301 -50 18 -70s24.5 -36.833 41.5 -50.5s36.667 -23.834 59 -30.501s45.833 -10 70.5 -10c26 0 50.167 4 72.5 12s41.666 19.5 57.999 34.5s29.333 33.167 39 54.5
s14.5 45 14.5 71c0 36.667 -9 67.167 -27 91.5s-41.333 41.833 -70 52.5c13.333 6.66699 26.166 15 38.499 25s23.333 22 33 36s17.5 29.5 23.5 46.5s9 35.833 9 56.5zM397 252.999c0 -21.333 -2.83301 -39.168 -8.5 -53.501s-13.5 -27.166 -23.5 -38.499
c-22 -24 -50.667 -36 -86 -36s-64 12 -86 36c-9.33301 10.667 -17.166 23.334 -23.499 38.001s-9.5 32.667 -9.5 54c0 20.667 2.66699 38 8 52s13.666 27.333 24.999 40c22 24 50.667 36 86 36c33.333 0 62 -12 86 -36c12.667 -12.667 21.167 -26.334 25.5 -41.001
s6.5 -31.667 6.5 -51z" />
    <glyph glyph-name="dieresis" unicode="&#xa8;" horiz-adv-x="500" 
d="M392 602v89h-72v-89h72zM180 602v89h-72v-89h72z" />
    <glyph glyph-name="copyright" unicode="&#xa9;" horiz-adv-x="881" 
d="M802 356c0 50 -9.5 97 -28.5 141s-44.833 82.333 -77.5 115s-71 58.5 -115 77.5s-91 28.5 -141 28.5s-97 -9.5 -141 -28.5s-82.333 -44.833 -115 -77.5s-58.5 -71 -77.5 -115s-28.5 -91 -28.5 -141s9.5 -97 28.5 -141s44.833 -82.333 77.5 -115s71 -58.5 115 -77.5
s91 -28.5 141 -28.5s97 9.5 141 28.5s82.333 44.833 115 77.5s58.5 71 77.5 115s28.5 91 28.5 141zM744 356c0 -42 -8 -81.667 -24 -119s-37.667 -70 -65 -98s-59.5 -50.167 -96.5 -66.5s-76.5 -24.5 -118.5 -24.5s-81.333 8.16699 -118 24.5s-68.834 38.5 -96.501 66.5
s-49.334 60.667 -65.001 98s-23.5 77 -23.5 119s7.83301 81.667 23.5 119s37.334 70 65.001 98s59.834 50.167 96.501 66.5s76 24.5 118 24.5s81.5 -8.16699 118.5 -24.5s69.167 -38.5 96.5 -66.5s49 -60.667 65 -98s24 -77 24 -119zM576 205l-36 36.001
c-16.667 -14.667 -32 -24.667 -46 -30s-30.333 -8 -49 -8c-22.667 0 -41.834 4 -57.501 12s-28.167 19 -37.5 33s-16.166 30.167 -20.499 48.5s-6.5 38.166 -6.5 59.499c0 20.667 2.16699 40.334 6.5 59.001s11.166 35 20.499 49s21.833 25.167 37.5 33.5
s34.834 12.5 57.501 12.5c18.667 0 35 -2.83301 49 -8.5s29.333 -15.834 46 -30.501l36 36c-20.667 18 -40.667 31.333 -60 40s-43 13 -71 13c-29.333 0 -55 -5.16699 -77 -15.5s-40.5 -24.5 -55.5 -42.5s-26.333 -39.5 -34 -64.5s-11.5 -52.167 -11.5 -81.5
s3.83301 -56.333 11.5 -81s19 -46 34 -64s33.5 -32.167 55.5 -42.5s47.667 -15.5 77 -15.5c28 0 52 4.33301 72 13s39.667 21.667 59 39z" />
    <glyph glyph-name="ordfeminine" unicode="&#xaa;" horiz-adv-x="449" 
d="M365 319l-0.000976562 264.999c0 42.667 -12.667 75.334 -38 98.001s-64.333 34 -117 34c-32 0 -58.833 -4.16699 -80.5 -12.5s-41.5 -24.166 -59.5 -47.499l41 -37c12 16.667 25.167 28.167 39.5 34.5s33.833 9.5 58.5 9.5c36 0 61.167 -7 75.5 -21s21.5 -35 21.5 -63
v-36h-115c-44 0 -77.5 -10.333 -100.5 -31s-34.5 -48.334 -34.5 -83.001c0 -31.333 10 -57.666 30 -78.999c12.667 -12.667 27.334 -21.834 44.001 -27.501s38.667 -8.5 66 -8.5c25.333 0 46.333 3 63 9s32.667 16.667 48 32v-36h58zM305.999 457.999
c0 -32.667 -6.33301 -55 -19 -67c-12 -11.333 -25.167 -18.333 -39.5 -21s-29.833 -4 -46.5 -4c-30 0 -51.833 5.33301 -65.5 16s-20.5 27 -20.5 49c0 44.667 28 67 84 67h107v-40z" />
    <glyph glyph-name="guillemotleft" unicode="&#xab;" horiz-adv-x="554" 
d="M476 58v89l-121 121l121 120v90l-210 -210zM250 58v89l-120 121l120 120v90l-210 -210z" />
    <glyph glyph-name="logicalnot" unicode="&#xac;" 
d="M471 103v204h-420v-67h353v-137h67z" />
    <glyph glyph-name="registered" unicode="&#xae;" horiz-adv-x="881" 
d="M802 356c0 50 -9.5 97 -28.5 141s-44.833 82.333 -77.5 115s-71 58.5 -115 77.5s-91 28.5 -141 28.5s-97 -9.5 -141 -28.5s-82.333 -44.833 -115 -77.5s-58.5 -71 -77.5 -115s-28.5 -91 -28.5 -141s9.5 -97 28.5 -141s44.833 -82.333 77.5 -115s71 -58.5 115 -77.5
s91 -28.5 141 -28.5s97 9.5 141 28.5s82.333 44.833 115 77.5s58.5 71 77.5 115s28.5 91 28.5 141zM745 356c0 -42.667 -8 -82.667 -24 -120s-37.833 -70 -65.5 -98s-60 -50.167 -97 -66.5s-76.5 -24.5 -118.5 -24.5s-81.5 8.16699 -118.5 24.5s-69.167 38.5 -96.5 66.5
s-49 60.667 -65 98s-24 77.333 -24 120s8 82.667 24 120s37.667 70 65 98s59.5 50.167 96.5 66.5s76.5 24.5 118.5 24.5s81.5 -8.16699 118.5 -24.5s69.333 -38.5 97 -66.5s49.5 -60.667 65.5 -98s24 -77.333 24 -120zM592 158l-95 168.998c24.667 7.33301 45 20 61 38
s24 41.667 24 71c0 16.667 -3.33301 32.334 -10 47.001s-15.667 27.334 -27 38.001s-24.5 19 -39.5 25s-31.167 9 -48.5 9h-135v-397h55v162h60l91 -162h64zM526 435.998c0 -20 -7 -36.5 -21 -49.5s-32 -19.5 -54 -19.5h-74v139h74c22 0 40 -6.66699 54 -20s21 -30 21 -50z
" />
    <glyph glyph-name="macron" unicode="&#xaf;" horiz-adv-x="500" 
d="M401 614v57h-302v-57h302z" />
    <glyph glyph-name="macron" unicode="&#x2c9;" horiz-adv-x="500" 
d="M401 614v57h-302v-57h302z" />
    <glyph glyph-name="degree" unicode="&#xb0;" horiz-adv-x="463" 
d="M396 557c0 22.667 -4.33301 44 -13 64s-20.334 37.333 -35.001 52s-32 26.334 -52 35.001s-41.333 13 -64 13s-44 -4.33301 -64 -13s-37.5 -20.334 -52.5 -35.001s-26.833 -32 -35.5 -52s-13 -41.333 -13 -64s4.33301 -44 13 -64s20.5 -37.333 35.5 -52
s32.5 -26.334 52.5 -35.001s41.333 -13 64 -13s44 4.33301 64 13s37.333 20.334 52 35.001s26.334 32 35.001 52s13 41.333 13 64zM335 557c0 -15.333 -2.66699 -29.333 -8 -42s-12.5 -23.834 -21.5 -33.501s-19.833 -17.167 -32.5 -22.5s-26.334 -8 -41.001 -8
s-28.334 2.66699 -41.001 8s-23.667 12.833 -33 22.5s-16.666 20.834 -21.999 33.501s-8 26.667 -8 42c0 14.667 2.66699 28.5 8 41.5s12.5 24.333 21.5 34s19.833 17.167 32.5 22.5s26.334 8 41.001 8s28.334 -2.66699 41.001 -8s23.667 -12.833 33 -22.5
s16.666 -21 21.999 -34s8 -26.833 8 -41.5z" />
    <glyph glyph-name="plusminus" unicode="&#xb1;" 
d="M470 289v67h-175v175h-67v-175h-176v-67h176v-177h67v177h175zM470 0v67h-418v-67h418z" />
    <glyph glyph-name="twosuperior" unicode="&#xb2;" horiz-adv-x="342" 
d="M294 285l0.000976562 52h-177l138 168c13.333 16 23.166 30.667 29.499 44s9.5 29.333 9.5 48c0 36.667 -11.5 65.667 -34.5 87s-52.5 32 -88.5 32s-65.5 -10.833 -88.5 -32.5s-34.5 -50.5 -34.5 -86.5h58c0 24.667 6.5 42 19.5 52s28.167 15 45.5 15
c20.667 0 36.667 -6.16699 48 -18.5s17 -28.5 17 -48.5c0 -11.333 -1.83301 -21.333 -5.5 -30s-9.5 -18 -17.5 -28l-165 -202v-52h246z" />
    <glyph glyph-name="threesuperior" unicode="&#xb3;" horiz-adv-x="356" 
d="M308 405c0 26.667 -5.33203 48.002 -15.999 64.002s-25.667 28 -45 36c17.333 8 30.666 19.5 39.999 34.5s14 34.167 14 57.5c0 36 -11.5 64.833 -34.5 86.5s-52.5 32.5 -88.5 32.5c-34 0 -62.667 -10.167 -86 -30.5s-36 -48.5 -38 -84.5h57
c1.33301 19.333 8 34.666 20 45.999s27.667 17 47 17c18 0 33.5 -5.66699 46.5 -17s19.5 -28.333 19.5 -51c0 -20.667 -5.5 -37.167 -16.5 -49.5s-28.167 -18.5 -51.5 -18.5h-9v-50h9c25.333 0 44.166 -6.5 56.499 -19.5s18.5 -30.833 18.5 -53.5
c0 -23.333 -6.83301 -41.333 -20.5 -54s-30.834 -19 -51.501 -19c-18.667 0 -35.167 5.33301 -49.5 16s-22.166 27.667 -23.499 51h-58c0.666992 -20.667 4.66699 -38.5 12 -53.5s17 -27.333 29 -37s25.667 -16.834 41 -21.501s31.666 -7 48.999 -7
c18 0 34.833 2.66699 50.5 8s29.334 13.166 41.001 23.499s20.834 23.333 27.501 39s10 33.834 10 54.501z" />
    <glyph glyph-name="acute" unicode="&#xb4;" horiz-adv-x="500" 
d="M375 747h-86l-88 -153h66z" />
    <glyph glyph-name="mu" unicode="&#xb5;" horiz-adv-x="561" 
d="M471 0l-0.000976562 492h-72v-303c0 -43.333 -11.167 -76 -33.5 -98s-52.166 -33 -89.499 -33s-66.833 10.833 -88.5 32.5s-32.5 54.5 -32.5 98.5v303h-72v-712h72v251c26.667 -24.667 62 -37 106 -37c56.667 0 102.667 20.333 138 61v-55h72z" />
    <glyph glyph-name="mu" unicode="&#x3bc;" horiz-adv-x="561" 
d="M471 0l-0.000976562 492h-72v-303c0 -43.333 -11.167 -76 -33.5 -98s-52.166 -33 -89.499 -33s-66.833 10.833 -88.5 32.5s-32.5 54.5 -32.5 98.5v303h-72v-712h72v251c26.667 -24.667 62 -37 106 -37c56.667 0 102.667 20.333 138 61v-55h72z" />
    <glyph glyph-name="paragraph" unicode="&#xb6;" horiz-adv-x="603" 
d="M500 -220l0.000976562 932h-241c-34 0 -64.5 -5.16699 -91.5 -15.5s-49.833 -24.166 -68.5 -41.499s-32.834 -37.833 -42.501 -61.5s-14.5 -48.834 -14.5 -75.501c0 -24.667 4.66699 -48.5 14 -71.5s22.5 -43.5 39.5 -61.5s37.667 -32.333 62 -43s51.5 -16 81.5 -16v-546
h72v864h117v-864h72z" />
    <glyph glyph-name="periodcentered" unicode="&#xb7;" horiz-adv-x="270" 
d="M182 223v94h-94v-94h94z" />
    <glyph glyph-name="cedilla" unicode="&#xb8;" horiz-adv-x="500" 
d="M313 -67h-67l-71 -149h79z" />
    <glyph glyph-name="onesuperior" unicode="&#xb9;" horiz-adv-x="261" 
d="M183 285v427h-57l-83 -71v-66l83 73v-363h57z" />
    <glyph glyph-name="ordmasculine" unicode="&#xba;" horiz-adv-x="455" 
d="M387 515c0 30 -3 58.333 -9 85s-19 50.334 -39 71.001c-13.333 13.333 -29.333 24.166 -48 32.499s-40 12.5 -64 12.5s-45.333 -4.16699 -64 -12.5s-34.667 -19.166 -48 -32.499c-20 -20.667 -33 -44.334 -39 -71.001s-9 -55 -9 -85c0 -30.667 3 -59.167 9 -85.5
s19 -49.833 39 -70.5c13.333 -13.333 29.333 -24 48 -32s40 -12 64 -12s45.333 4 64 12s34.667 18.667 48 32c20 20.667 33 44.167 39 70.5s9 54.833 9 85.5zM328 515c0 -21.333 -1.66699 -42.833 -5 -64.5s-12 -39.5 -26 -53.5c-9.33301 -9.33301 -20 -16.5 -32 -21.5
s-24.667 -7.5 -38 -7.5s-26 2.5 -38 7.5s-22.667 12.167 -32 21.5c-14 14 -22.5 31.833 -25.5 53.5s-4.5 43.167 -4.5 64.5s1.5 43 4.5 65s11.5 40 25.5 54c18.667 18.667 42 28 70 28s51.333 -9.33301 70 -28c14 -14 22.667 -32 26 -54s5 -43.667 5 -65z" />
    <glyph glyph-name="guillemotright" unicode="&#xbb;" horiz-adv-x="554" 
d="M514 268l-210 210v-90l120 -120l-120 -121v-89zM288 268l-210 210v-90l121 -120l-121 -121v-89z" />
    <glyph glyph-name="onequarter" unicode="&#xbc;" horiz-adv-x="777" 
d="M737 64v53h-47v105h-56v-105h-109l150 310h-62l-151 -310v-53h172v-64h56v64h47zM566 712h-60l-333 -712h60zM183 285v427h-57l-83 -71v-66l83 73v-363h57z" />
    <glyph glyph-name="onehalf" unicode="&#xbd;" horiz-adv-x="790" 
d="M742 0l0.000976562 52h-176l137 168c13.333 16 23.166 30.667 29.499 44s9.5 29.333 9.5 48c0 36.667 -11.5 65.667 -34.5 87s-52.5 32 -88.5 32s-65.5 -10.833 -88.5 -32.5s-34.5 -50.5 -34.5 -86.5h58c0 24.667 6.5 42 19.5 52s28.167 15 45.5 15
c20.667 0 36.667 -6.16699 48 -18.5s17 -28.5 17 -48.5c0 -11.333 -1.83301 -21.333 -5.5 -30s-9.5 -18 -17.5 -28l-165 -202v-52h246zM554.001 712h-60l-333 -712h60zM183.001 285v427h-57l-83 -71v-66l83 73v-363h57z" />
    <glyph glyph-name="threequarters" unicode="&#xbe;" horiz-adv-x="822" 
d="M782 64v53h-47v105h-56v-105h-110l151 310h-62l-151 -310v-53h172v-64h56v64h47zM619 712h-60l-334 -712h60zM308 405c0 26.667 -5.33203 48.002 -15.999 64.002s-25.667 28 -45 36c17.333 8 30.666 19.5 39.999 34.5s14 34.167 14 57.5c0 36 -11.5 64.833 -34.5 86.5
s-52.5 32.5 -88.5 32.5c-34 0 -62.667 -10.167 -86 -30.5s-36 -48.5 -38 -84.5h57c1.33301 19.333 8 34.666 20 45.999s27.667 17 47 17c18 0 33.5 -5.66699 46.5 -17s19.5 -28.333 19.5 -51c0 -20.667 -5.5 -37.167 -16.5 -49.5s-28.167 -18.5 -51.5 -18.5h-9v-50h9
c25.333 0 44.166 -6.5 56.499 -19.5s18.5 -30.833 18.5 -53.5c0 -23.333 -6.83301 -41.333 -20.5 -54s-30.834 -19 -51.501 -19c-18.667 0 -35.167 5.33301 -49.5 16s-22.166 27.667 -23.499 51h-58c0.666992 -20.667 4.66699 -38.5 12 -53.5s17 -27.333 29 -37
s25.667 -16.834 41 -21.501s31.666 -7 48.999 -7c18 0 34.833 2.66699 50.5 8s29.334 13.166 41.001 23.499s20.834 23.333 27.501 39s10 33.834 10 54.501z" />
    <glyph glyph-name="questiondown" unicode="&#xbf;" horiz-adv-x="497" 
d="M270 408v84h-85v-84h85zM421 -43h-71.999c0 -16 -2.66699 -31 -8 -45s-13 -26.5 -23 -37.5s-22 -19.667 -36 -26s-30 -9.5 -48 -9.5c-34 0 -61.833 11.167 -83.5 33.5s-32.5 50.5 -32.5 84.5c0 17.333 3.16699 32.333 9.5 45s14.166 26 23.499 40l81 116
c10.667 15.333 18.667 30 24 44s8 30.667 8 50v41h-72v-40c0 -8 -1.5 -17.333 -4.5 -28s-7.5 -20.667 -13.5 -30l-82 -118c-13.333 -19.333 -24.333 -38.333 -33 -57s-13 -39.667 -13 -63c0 -26.667 4.83301 -51.167 14.5 -73.5s23 -41.666 40 -57.999s37 -29 60 -38
s47.5 -13.5 73.5 -13.5c26.667 0 51.5 4.66699 74.5 14s42.833 22.333 59.5 39s29.667 36.167 39 58.5s14 46.166 14 71.499z" />
    <glyph glyph-name="Agrave" unicode="&#xc0;" horiz-adv-x="611" 
d="M599 0l-261 712h-64l-262 -712h81l57 161h311l57 -161h81zM439 227h-266l134 376zM351 781l-88 153h-86l108 -153h66z" />
    <glyph glyph-name="Aacute" unicode="&#xc1;" horiz-adv-x="611" 
d="M599 0l-261 712h-64l-262 -712h81l57 161h311l57 -161h81zM439 227h-266l134 376zM427 934h-86l-88 -153h66z" />
    <glyph glyph-name="Acircumflex" unicode="&#xc2;" horiz-adv-x="611" 
d="M599 0l-261 712h-64l-262 -712h81l57 161h311l57 -161h81zM439 227h-266l134 376zM461 781l-125 153h-68l-125 -153h69l90 104l90 -104h69z" />
    <glyph glyph-name="Atilde" unicode="&#xc3;" horiz-adv-x="611" 
d="M599 0l-261 712h-64l-262 -712h81l57 161h311l57 -161h81zM439 227h-266l134 376zM459 846l-37 36c-14.667 -14.667 -26.334 -23.667 -35.001 -27s-16.667 -5 -24 -5c-10 0 -19.167 1.66699 -27.5 5s-17.833 8.33301 -28.5 15c-12.667 7.33301 -24 13.166 -34 17.499
s-22.333 6.5 -37 6.5c-6 0 -12.333 -0.5 -19 -1.5s-13.667 -3.33301 -21 -7s-15.5 -8.83398 -24.5 -15.501s-19.167 -15.667 -30.5 -27l37 -36c14.667 14.667 26.167 23.667 34.5 27s16.5 5 24.5 5c10 0 19.5 -2.16699 28.5 -6.5s18.167 -9.16602 27.5 -14.499
c12 -7.33301 23.333 -13 34 -17s23 -6 37 -6c11.333 0 24.333 2.83301 39 8.5s33.334 19.834 56.001 42.501z" />
    <glyph glyph-name="Adieresis" unicode="&#xc4;" horiz-adv-x="611" 
d="M599 0l-261 712h-64l-262 -712h81l57 161h311l57 -161h81zM439 227h-266l134 376zM444 789v89h-72v-89h72zM232 789v89h-72v-89h72z" />
    <glyph glyph-name="Aring" unicode="&#xc5;" horiz-adv-x="611" 
d="M599 0l-261 712h-64l-262 -712h81l57 161h311l57 -161h81zM439 227h-266l134 376zM420 867c0 16.667 -3.16699 32.167 -9.5 46.5s-14.833 26.833 -25.5 37.5s-23.167 19 -37.5 25s-29.5 9 -45.5 9s-31.167 -3.16699 -45.5 -9.5s-26.833 -14.833 -37.5 -25.5
s-19.167 -23.167 -25.5 -37.5s-9.5 -29.5 -9.5 -45.5s3.16699 -31.333 9.5 -46s14.833 -27.334 25.5 -38.001s23.167 -19.167 37.5 -25.5s29.5 -9.5 45.5 -9.5s31.167 3.16699 45.5 9.5s26.833 14.833 37.5 25.5s19.167 23.334 25.5 38.001s9.5 30 9.5 46zM371 867
c0 -19.333 -6.66699 -35.666 -20 -48.999s-29.666 -20 -48.999 -20s-35.666 6.66699 -48.999 20s-20 29.666 -20 48.999s6.66699 35.5 20 48.5s29.666 19.5 48.999 19.5s35.666 -6.5 48.999 -19.5s20 -29.167 20 -48.5z" />
    <glyph glyph-name="AE" unicode="&#xc6;" horiz-adv-x="922" 
d="M867 0v68h-366v255h312v68h-312v253h366v68h-483l-376 -712h83l88 169h247v-169h441zM426 235h-214l214 409v-409z" />
    <glyph glyph-name="Ccedilla" unicode="&#xc7;" horiz-adv-x="637" 
d="M572 206h-75.999c-9.33301 -44 -29 -79 -59 -105s-67.333 -39 -112 -39c-23.333 0 -45.833 4.33301 -67.5 13s-40.167 21 -55.5 37c-11.333 11.333 -20.333 23.5 -27 36.5s-11.667 28.667 -15 47s-5.5 40.333 -6.5 66s-1.5 57.167 -1.5 94.5s0.5 68.833 1.5 94.5
s3.16699 47.667 6.5 66s8.33301 34 15 47s15.667 25.167 27 36.5c15.333 16 33.833 28.333 55.5 37s44.167 13 67.5 13c44.667 0 81.667 -13 111 -39s48.666 -61 57.999 -105h78c-6 33.333 -16.167 63.166 -30.5 89.499s-32.333 48.5 -54 66.5s-46.167 31.833 -73.5 41.5
s-57 14.5 -89 14.5c-35.333 0 -68.5 -6.33301 -99.5 -19s-58.5 -31 -82.5 -55c-16.667 -16.667 -29.5 -34 -38.5 -52s-15.667 -38.167 -20 -60.5s-6.83301 -47.666 -7.5 -75.999s-1 -61.5 -1 -99.5s0.333008 -71.167 1 -99.5s3.16699 -53.666 7.5 -75.999s11 -42.5 20 -60.5
s21.833 -35.333 38.5 -52c24 -24 51.5 -42.333 82.5 -55s64.167 -19 99.5 -19c32 0 61.667 4.83301 89 14.5s51.833 23.5 73.5 41.5s39.667 40.167 54 66.5s24.5 56.166 30.5 89.499zM370.001 -67h-67l-71 -149h79z" />
    <glyph glyph-name="Egrave" unicode="&#xc8;" horiz-adv-x="600" 
d="M545 0v68h-366v257h312v68h-312v251h366v68h-442v-712h442zM362 781l-88 153h-86l108 -153h66z" />
    <glyph glyph-name="Eacute" unicode="&#xc9;" horiz-adv-x="600" 
d="M545 0v68h-366v257h312v68h-312v251h366v68h-442v-712h442zM438 934h-86l-88 -153h66z" />
    <glyph glyph-name="Ecircumflex" unicode="&#xca;" horiz-adv-x="600" 
d="M545 0v68h-366v257h312v68h-312v251h366v68h-442v-712h442zM472 781l-125 153h-68l-125 -153h69l90 104l90 -104h69z" />
    <glyph glyph-name="Edieresis" unicode="&#xcb;" horiz-adv-x="600" 
d="M545 0v68h-366v257h312v68h-312v251h366v68h-442v-712h442zM455 789v89h-72v-89h72zM243 789v89h-72v-89h72z" />
    <glyph glyph-name="Igrave" unicode="&#xcc;" horiz-adv-x="282" 
d="M179 0v712h-76v-712h76zM278 781l-88 153h-86l108 -153h66z" />
    <glyph glyph-name="Iacute" unicode="&#xcd;" horiz-adv-x="282" 
d="M179 0v712h-76v-712h76zM278 934h-86l-88 -153h66z" />
    <glyph glyph-name="Icircumflex" unicode="&#xce;" horiz-adv-x="282" 
d="M179 0v712h-76v-712h76zM421 781l-125 153h-68l-125 -153h69l90 104l90 -104h69z" />
    <glyph glyph-name="Idieresis" unicode="&#xcf;" horiz-adv-x="282" 
d="M179 0v712h-76v-712h76zM388 789v89h-72v-89h72zM176 789v89h-72v-89h72z" />
    <glyph glyph-name="Eth" unicode="&#xd0;" horiz-adv-x="687" 
d="M611 356c0 38.667 -0.333008 70.332 -1 94.999s-2.5 45.834 -5.5 63.501s-7.5 33.167 -13.5 46.5s-14 28 -24 44c-46.667 71.333 -115 107 -205 107h-245v-323h-78v-59h78v-330h239c49.333 0 91.5 10 126.5 30s63.167 45 84.5 75c9.33301 13.333 17 26.333 23 39
s10.5 28 13.5 46s5 40 6 66s1.5 59.333 1.5 100zM535 351.998c0 -34.667 -0.333984 -62.999 -1.00098 -84.999s-2 -40.5 -4 -55.5s-5 -27.833 -9 -38.5s-9.66699 -21.334 -17 -32.001c-33.333 -49.333 -85.333 -74 -156 -74h-154v263h161v59h-161v256h154
c34 0 62.833 -5.5 86.5 -16.5s45.167 -29.5 64.5 -55.5c8.66699 -12 15.334 -23.833 20.001 -35.5s8.16699 -25.667 10.5 -42s3.83301 -36 4.5 -59s1 -51.167 1 -84.5z" />
    <glyph glyph-name="Ntilde" unicode="&#xd1;" horiz-adv-x="732" 
d="M629 0v712h-76v-569l-378 569h-72v-712h76v571l378 -571h72zM523 846l-37 36c-14.667 -14.667 -26.334 -23.667 -35.001 -27s-16.667 -5 -24 -5c-10 0 -19.167 1.66699 -27.5 5s-17.833 8.33301 -28.5 15c-12.667 7.33301 -24 13.166 -34 17.499s-22.333 6.5 -37 6.5
c-6 0 -12.333 -0.5 -19 -1.5s-13.667 -3.33301 -21 -7s-15.5 -8.83398 -24.5 -15.501s-19.167 -15.667 -30.5 -27l37 -36c14.667 14.667 26.167 23.667 34.5 27s16.5 5 24.5 5c10 0 19.5 -2.16699 28.5 -6.5s18.167 -9.16602 27.5 -14.499c12 -7.33301 23.333 -13 34 -17
s23 -6 37 -6c11.333 0 24.333 2.83301 39 8.5s33.334 19.834 56.001 42.501z" />
    <glyph glyph-name="Ograve" unicode="&#xd2;" horiz-adv-x="650" 
d="M574 356c0 38 -0.333008 71.167 -1 99.5s-3.16699 53.666 -7.5 75.999s-11 42.5 -20 60.5s-21.833 35.333 -38.5 52c-49.333 49.333 -110 74 -182 74s-132.667 -24.667 -182 -74c-16.667 -16.667 -29.5 -34 -38.5 -52s-15.667 -38.167 -20 -60.5
s-6.83301 -47.666 -7.5 -75.999s-1 -61.5 -1 -99.5s0.333008 -71.167 1 -99.5s3.16699 -53.666 7.5 -75.999s11 -42.5 20 -60.5s21.833 -35.333 38.5 -52c49.333 -49.333 110 -74 182 -74c36 0 69.333 6.33301 100 19s58 31 82 55c16.667 16.667 29.5 34 38.5 52
s15.667 38.167 20 60.5s6.83301 47.666 7.5 75.999s1 61.5 1 99.5zM498 356c0 -37.333 -0.5 -68.833 -1.5 -94.5s-3.16699 -47.5 -6.5 -65.5s-8.33301 -33.5 -15 -46.5s-15.667 -25.167 -27 -36.5c-15.333 -16 -33.833 -28.5 -55.5 -37.5s-44.167 -13.5 -67.5 -13.5
s-45.833 4.5 -67.5 13.5s-40.167 21.5 -55.5 37.5c-11.333 11.333 -20.333 23.5 -27 36.5s-11.667 28.5 -15 46.5s-5.5 39.833 -6.5 65.5s-1.5 57.167 -1.5 94.5s0.5 68.833 1.5 94.5s3.16699 47.5 6.5 65.5s8.33301 33.5 15 46.5s15.667 25.167 27 36.5
c15.333 16 33.833 28.5 55.5 37.5s44.167 13.5 67.5 13.5s45.833 -4.5 67.5 -13.5s40.167 -21.5 55.5 -37.5c11.333 -11.333 20.333 -23.5 27 -36.5s11.667 -28.5 15 -46.5s5.5 -39.833 6.5 -65.5s1.5 -57.167 1.5 -94.5zM374 781l-88 153h-86l108 -153h66z" />
    <glyph glyph-name="Oacute" unicode="&#xd3;" horiz-adv-x="650" 
d="M574 356c0 38 -0.333008 71.167 -1 99.5s-3.16699 53.666 -7.5 75.999s-11 42.5 -20 60.5s-21.833 35.333 -38.5 52c-49.333 49.333 -110 74 -182 74s-132.667 -24.667 -182 -74c-16.667 -16.667 -29.5 -34 -38.5 -52s-15.667 -38.167 -20 -60.5
s-6.83301 -47.666 -7.5 -75.999s-1 -61.5 -1 -99.5s0.333008 -71.167 1 -99.5s3.16699 -53.666 7.5 -75.999s11 -42.5 20 -60.5s21.833 -35.333 38.5 -52c49.333 -49.333 110 -74 182 -74c36 0 69.333 6.33301 100 19s58 31 82 55c16.667 16.667 29.5 34 38.5 52
s15.667 38.167 20 60.5s6.83301 47.666 7.5 75.999s1 61.5 1 99.5zM498 356c0 -37.333 -0.5 -68.833 -1.5 -94.5s-3.16699 -47.5 -6.5 -65.5s-8.33301 -33.5 -15 -46.5s-15.667 -25.167 -27 -36.5c-15.333 -16 -33.833 -28.5 -55.5 -37.5s-44.167 -13.5 -67.5 -13.5
s-45.833 4.5 -67.5 13.5s-40.167 21.5 -55.5 37.5c-11.333 11.333 -20.333 23.5 -27 36.5s-11.667 28.5 -15 46.5s-5.5 39.833 -6.5 65.5s-1.5 57.167 -1.5 94.5s0.5 68.833 1.5 94.5s3.16699 47.5 6.5 65.5s8.33301 33.5 15 46.5s15.667 25.167 27 36.5
c15.333 16 33.833 28.5 55.5 37.5s44.167 13.5 67.5 13.5s45.833 -4.5 67.5 -13.5s40.167 -21.5 55.5 -37.5c11.333 -11.333 20.333 -23.5 27 -36.5s11.667 -28.5 15 -46.5s5.5 -39.833 6.5 -65.5s1.5 -57.167 1.5 -94.5zM450 934h-86l-88 -153h66z" />
    <glyph glyph-name="Ocircumflex" unicode="&#xd4;" horiz-adv-x="650" 
d="M574 356c0 38 -0.333008 71.167 -1 99.5s-3.16699 53.666 -7.5 75.999s-11 42.5 -20 60.5s-21.833 35.333 -38.5 52c-49.333 49.333 -110 74 -182 74s-132.667 -24.667 -182 -74c-16.667 -16.667 -29.5 -34 -38.5 -52s-15.667 -38.167 -20 -60.5
s-6.83301 -47.666 -7.5 -75.999s-1 -61.5 -1 -99.5s0.333008 -71.167 1 -99.5s3.16699 -53.666 7.5 -75.999s11 -42.5 20 -60.5s21.833 -35.333 38.5 -52c49.333 -49.333 110 -74 182 -74c36 0 69.333 6.33301 100 19s58 31 82 55c16.667 16.667 29.5 34 38.5 52
s15.667 38.167 20 60.5s6.83301 47.666 7.5 75.999s1 61.5 1 99.5zM498 356c0 -37.333 -0.5 -68.833 -1.5 -94.5s-3.16699 -47.5 -6.5 -65.5s-8.33301 -33.5 -15 -46.5s-15.667 -25.167 -27 -36.5c-15.333 -16 -33.833 -28.5 -55.5 -37.5s-44.167 -13.5 -67.5 -13.5
s-45.833 4.5 -67.5 13.5s-40.167 21.5 -55.5 37.5c-11.333 11.333 -20.333 23.5 -27 36.5s-11.667 28.5 -15 46.5s-5.5 39.833 -6.5 65.5s-1.5 57.167 -1.5 94.5s0.5 68.833 1.5 94.5s3.16699 47.5 6.5 65.5s8.33301 33.5 15 46.5s15.667 25.167 27 36.5
c15.333 16 33.833 28.5 55.5 37.5s44.167 13.5 67.5 13.5s45.833 -4.5 67.5 -13.5s40.167 -21.5 55.5 -37.5c11.333 -11.333 20.333 -23.5 27 -36.5s11.667 -28.5 15 -46.5s5.5 -39.833 6.5 -65.5s1.5 -57.167 1.5 -94.5zM484 781l-125 153h-68l-125 -153h69l90 104l90 -104
h69z" />
    <glyph glyph-name="Otilde" unicode="&#xd5;" horiz-adv-x="650" 
d="M574 356c0 38 -0.333008 71.167 -1 99.5s-3.16699 53.666 -7.5 75.999s-11 42.5 -20 60.5s-21.833 35.333 -38.5 52c-49.333 49.333 -110 74 -182 74s-132.667 -24.667 -182 -74c-16.667 -16.667 -29.5 -34 -38.5 -52s-15.667 -38.167 -20 -60.5
s-6.83301 -47.666 -7.5 -75.999s-1 -61.5 -1 -99.5s0.333008 -71.167 1 -99.5s3.16699 -53.666 7.5 -75.999s11 -42.5 20 -60.5s21.833 -35.333 38.5 -52c49.333 -49.333 110 -74 182 -74c36 0 69.333 6.33301 100 19s58 31 82 55c16.667 16.667 29.5 34 38.5 52
s15.667 38.167 20 60.5s6.83301 47.666 7.5 75.999s1 61.5 1 99.5zM498 356c0 -37.333 -0.5 -68.833 -1.5 -94.5s-3.16699 -47.5 -6.5 -65.5s-8.33301 -33.5 -15 -46.5s-15.667 -25.167 -27 -36.5c-15.333 -16 -33.833 -28.5 -55.5 -37.5s-44.167 -13.5 -67.5 -13.5
s-45.833 4.5 -67.5 13.5s-40.167 21.5 -55.5 37.5c-11.333 11.333 -20.333 23.5 -27 36.5s-11.667 28.5 -15 46.5s-5.5 39.833 -6.5 65.5s-1.5 57.167 -1.5 94.5s0.5 68.833 1.5 94.5s3.16699 47.5 6.5 65.5s8.33301 33.5 15 46.5s15.667 25.167 27 36.5
c15.333 16 33.833 28.5 55.5 37.5s44.167 13.5 67.5 13.5s45.833 -4.5 67.5 -13.5s40.167 -21.5 55.5 -37.5c11.333 -11.333 20.333 -23.5 27 -36.5s11.667 -28.5 15 -46.5s5.5 -39.833 6.5 -65.5s1.5 -57.167 1.5 -94.5zM482 846l-37 36
c-14.667 -14.667 -26.334 -23.667 -35.001 -27s-16.667 -5 -24 -5c-10 0 -19.167 1.66699 -27.5 5s-17.833 8.33301 -28.5 15c-12.667 7.33301 -24 13.166 -34 17.499s-22.333 6.5 -37 6.5c-6 0 -12.333 -0.5 -19 -1.5s-13.667 -3.33301 -21 -7
s-15.5 -8.83398 -24.5 -15.501s-19.167 -15.667 -30.5 -27l37 -36c14.667 14.667 26.167 23.667 34.5 27s16.5 5 24.5 5c10 0 19.5 -2.16699 28.5 -6.5s18.167 -9.16602 27.5 -14.499c12 -7.33301 23.333 -13 34 -17s23 -6 37 -6c11.333 0 24.333 2.83301 39 8.5
s33.334 19.834 56.001 42.501z" />
    <glyph glyph-name="Odieresis" unicode="&#xd6;" horiz-adv-x="650" 
d="M574 356c0 38 -0.333008 71.167 -1 99.5s-3.16699 53.666 -7.5 75.999s-11 42.5 -20 60.5s-21.833 35.333 -38.5 52c-49.333 49.333 -110 74 -182 74s-132.667 -24.667 -182 -74c-16.667 -16.667 -29.5 -34 -38.5 -52s-15.667 -38.167 -20 -60.5
s-6.83301 -47.666 -7.5 -75.999s-1 -61.5 -1 -99.5s0.333008 -71.167 1 -99.5s3.16699 -53.666 7.5 -75.999s11 -42.5 20 -60.5s21.833 -35.333 38.5 -52c49.333 -49.333 110 -74 182 -74c36 0 69.333 6.33301 100 19s58 31 82 55c16.667 16.667 29.5 34 38.5 52
s15.667 38.167 20 60.5s6.83301 47.666 7.5 75.999s1 61.5 1 99.5zM498 356c0 -37.333 -0.5 -68.833 -1.5 -94.5s-3.16699 -47.5 -6.5 -65.5s-8.33301 -33.5 -15 -46.5s-15.667 -25.167 -27 -36.5c-15.333 -16 -33.833 -28.5 -55.5 -37.5s-44.167 -13.5 -67.5 -13.5
s-45.833 4.5 -67.5 13.5s-40.167 21.5 -55.5 37.5c-11.333 11.333 -20.333 23.5 -27 36.5s-11.667 28.5 -15 46.5s-5.5 39.833 -6.5 65.5s-1.5 57.167 -1.5 94.5s0.5 68.833 1.5 94.5s3.16699 47.5 6.5 65.5s8.33301 33.5 15 46.5s15.667 25.167 27 36.5
c15.333 16 33.833 28.5 55.5 37.5s44.167 13.5 67.5 13.5s45.833 -4.5 67.5 -13.5s40.167 -21.5 55.5 -37.5c11.333 -11.333 20.333 -23.5 27 -36.5s11.667 -28.5 15 -46.5s5.5 -39.833 6.5 -65.5s1.5 -57.167 1.5 -94.5zM467 789v89h-72v-89h72zM255 789v89h-72v-89h72z
" />
    <glyph glyph-name="multiply" unicode="&#xd7;" 
d="M457 119l-152 151l152 151l-45 45l-151 -152l-151 152l-45 -45l151 -151l-151 -151l45 -45l151 151l151 -151z" />
    <glyph glyph-name="Oslash" unicode="&#xd8;" horiz-adv-x="652" 
d="M574 356c0 38 -0.332031 71.167 -0.999023 99.5s-3.16699 53.666 -7.5 75.999s-11 42.5 -20 60.5s-21.833 35.333 -38.5 52l-4 4l-4 4l50 104h-65l-34 -69c-36.667 20.667 -78.334 31 -125.001 31c-72 0 -132.667 -24.667 -182 -74c-16.667 -16.667 -29.5 -34 -38.5 -52
s-15.667 -38.167 -20 -60.5s-6.83301 -47.666 -7.5 -75.999s-1 -61.5 -1 -99.5s0.333008 -71.167 1 -99.5s3.16699 -53.666 7.5 -75.999s11 -42.5 20 -60.5s21.833 -35.333 38.5 -52l8 -8l-50 -104h65l33 70c37.333 -21.333 79.333 -32 126 -32c36 0 69.333 6.33301 100 19
s58 31 82 55c16.667 16.667 29.5 34 38.5 52s15.667 38.167 20 60.5s6.83301 47.666 7.5 75.999s1 61.5 1 99.5zM497.001 356c0 -37.333 -0.501953 -68.833 -1.50195 -94.5s-3.16699 -47.5 -6.5 -65.5s-8.16602 -33.5 -14.499 -46.5s-15.166 -25.167 -26.499 -36.5
c-15.333 -16 -33.833 -28.5 -55.5 -37.5s-44.167 -13.5 -67.5 -13.5c-17.333 0 -34.166 2.5 -50.499 7.5s-31.5 12.167 -45.5 21.5l234 490c8 -10.667 14.167 -22.167 18.5 -34.5s7.66602 -27.333 9.99902 -45s3.83301 -38.167 4.5 -61.5s1 -51.333 1 -84zM420.999 621
l-233.998 -490c-8 10.667 -14.167 22.167 -18.5 34.5s-7.83301 27.333 -10.5 45s-4.33398 38.167 -5.00098 61.5s-1 51.333 -1 84c0 37.333 0.5 68.833 1.5 94.5s3.16699 47.5 6.5 65.5s8.33301 33.5 15 46.5s15.667 25.167 27 36.5c15.333 16 33.833 28.5 55.5 37.5
s44.167 13.5 67.5 13.5c17.333 0 34.166 -2.5 50.499 -7.5s31.5 -12.167 45.5 -21.5z" />
    <glyph glyph-name="Ugrave" unicode="&#xd9;" horiz-adv-x="682" 
d="M590 235l0.00195312 477h-76v-471c0 -27.333 -4.16699 -52 -12.5 -74s-20 -40.667 -35 -56s-33.167 -27.333 -54.5 -36s-45 -13 -71 -13s-49.667 4.33301 -71 13s-39.5 20.667 -54.5 36s-26.5 34 -34.5 56s-12 46.667 -12 74v471h-76v-477
c0 -35.333 6.16699 -67.833 18.5 -97.5s29.5 -55.167 51.5 -76.5s48.167 -37.833 78.5 -49.5s63.5 -17.5 99.5 -17.5s69.167 5.83301 99.5 17.5s56.666 28.167 78.999 49.5s39.666 46.833 51.999 76.5s18.5 62.167 18.5 97.5zM390.002 781l-88 153h-86l108 -153h66z" />
    <glyph glyph-name="Uacute" unicode="&#xda;" horiz-adv-x="682" 
d="M590 235l0.00195312 477h-76v-471c0 -27.333 -4.16699 -52 -12.5 -74s-20 -40.667 -35 -56s-33.167 -27.333 -54.5 -36s-45 -13 -71 -13s-49.667 4.33301 -71 13s-39.5 20.667 -54.5 36s-26.5 34 -34.5 56s-12 46.667 -12 74v471h-76v-477
c0 -35.333 6.16699 -67.833 18.5 -97.5s29.5 -55.167 51.5 -76.5s48.167 -37.833 78.5 -49.5s63.5 -17.5 99.5 -17.5s69.167 5.83301 99.5 17.5s56.666 28.167 78.999 49.5s39.666 46.833 51.999 76.5s18.5 62.167 18.5 97.5zM466.002 934h-86l-88 -153h66z" />
    <glyph glyph-name="Ucircumflex" unicode="&#xdb;" horiz-adv-x="682" 
d="M590 235l0.00195312 477h-76v-471c0 -27.333 -4.16699 -52 -12.5 -74s-20 -40.667 -35 -56s-33.167 -27.333 -54.5 -36s-45 -13 -71 -13s-49.667 4.33301 -71 13s-39.5 20.667 -54.5 36s-26.5 34 -34.5 56s-12 46.667 -12 74v471h-76v-477
c0 -35.333 6.16699 -67.833 18.5 -97.5s29.5 -55.167 51.5 -76.5s48.167 -37.833 78.5 -49.5s63.5 -17.5 99.5 -17.5s69.167 5.83301 99.5 17.5s56.666 28.167 78.999 49.5s39.666 46.833 51.999 76.5s18.5 62.167 18.5 97.5zM500.002 781l-125 153h-68l-125 -153h69l90 104
l90 -104h69z" />
    <glyph glyph-name="Udieresis" unicode="&#xdc;" horiz-adv-x="682" 
d="M590 235l0.00195312 477h-76v-471c0 -27.333 -4.16699 -52 -12.5 -74s-20 -40.667 -35 -56s-33.167 -27.333 -54.5 -36s-45 -13 -71 -13s-49.667 4.33301 -71 13s-39.5 20.667 -54.5 36s-26.5 34 -34.5 56s-12 46.667 -12 74v471h-76v-477
c0 -35.333 6.16699 -67.833 18.5 -97.5s29.5 -55.167 51.5 -76.5s48.167 -37.833 78.5 -49.5s63.5 -17.5 99.5 -17.5s69.167 5.83301 99.5 17.5s56.666 28.167 78.999 49.5s39.666 46.833 51.999 76.5s18.5 62.167 18.5 97.5zM483.002 789v89h-72v-89h72zM271.002 789v89
h-72v-89h72z" />
    <glyph glyph-name="Yacute" unicode="&#xdd;" horiz-adv-x="515" 
d="M506 712h-82l-166 -341l-168 341h-82l212 -418v-294h76v294zM382 934h-86l-88 -153h66z" />
    <glyph glyph-name="Thorn" unicode="&#xde;" horiz-adv-x="642" 
d="M588 359c0 32 -5.33301 61 -16 87s-25.667 48 -45 66s-42.5 32 -69.5 42s-56.833 15 -89.5 15h-189v143h-76v-712h76v150h189c32.667 0 62.5 4.83301 89.5 14.5s50.167 23.667 69.5 42s34.333 40.333 45 66s16 54.5 16 86.5zM512 359c0 -47.333 -14 -82.668 -42 -106.001
s-64.333 -35 -109 -35h-182v282h182c44.667 0 81 -11.667 109 -35s42 -58.666 42 -105.999z" />
    <glyph glyph-name="germandbls" unicode="&#xdf;" horiz-adv-x="556" 
d="M484 141l-0.00195312 173c0 16 -1 30 -3 42s-5.5 22.667 -10.5 32s-11.5 17.666 -19.5 24.999s-18 14.333 -30 21c20 13.333 35.5 29.5 46.5 48.5s16.5 42.5 16.5 70.5c0 28.667 -5.16699 53.5 -15.5 74.5s-24.166 38.167 -41.499 51.5s-37.666 23.333 -60.999 30
s-48.333 10 -75 10c-62 0 -111 -16.833 -147 -50.5s-54 -81.834 -54 -144.501v-524h73v521c0 40 9.5 72.5 28.5 97.5s50.833 37.5 95.5 37.5c42.667 0 74 -9.66699 94 -29c9.33301 -9.33301 16.833 -20.5 22.5 -33.5s8.5 -26.833 8.5 -41.5
c0 -28 -8.16699 -50.167 -24.5 -66.5s-37.5 -24.5 -63.5 -24.5h-36v-60h44c25.333 0 45 -7 59 -21s21 -34.667 21 -62v-169c0 -31.333 -8.33301 -53.666 -25 -66.999c-8.66699 -7.33301 -17 -12.5 -25 -15.5s-19.333 -4.5 -34 -4.5h-40v-62h54c23.333 0 43 2.83301 59 8.5
s30.667 14.834 44 27.501c26 24 39 59 39 105z" />
    <glyph glyph-name="agrave" unicode="&#xe0;" horiz-adv-x="526" 
d="M441 0l0.000976562 334c0 54 -16.167 94.833 -48.5 122.5s-81.833 41.5 -148.5 41.5c-40 0 -73.5 -5 -100.5 -15s-51.5 -29.333 -73.5 -58l49 -45c14.667 20.667 31 35.167 49 43.5s43 12.5 75 12.5c45.333 0 77.666 -9 96.999 -27s29 -45 29 -81v-47h-148
c-55.333 0 -97.5 -12.833 -126.5 -38.5s-43.5 -60.167 -43.5 -103.5c0 -19.333 3.16699 -37.833 9.5 -55.5s15.5 -32.5 27.5 -44.5c15.333 -16 33.833 -27.5 55.5 -34.5s49.5 -10.5 83.5 -10.5c32.667 0 59.5 3.83301 80.5 11.5s41.5 21.5 61.5 41.5v-47h72zM369.001 174
c0 -40.667 -8.33496 -69.002 -25.002 -85.002c-15.333 -15.333 -32.166 -24.666 -50.499 -27.999s-38.166 -5 -59.499 -5c-39.333 0 -68 6.83301 -86 20.5s-27 34.834 -27 63.501c0 58 36.667 87 110 87h138v-53zM300.999 593.998l-88 153h-86l108 -153h66z" />
    <glyph glyph-name="aacute" unicode="&#xe1;" horiz-adv-x="526" 
d="M441 0l0.000976562 334c0 54 -16.167 94.833 -48.5 122.5s-81.833 41.5 -148.5 41.5c-40 0 -73.5 -5 -100.5 -15s-51.5 -29.333 -73.5 -58l49 -45c14.667 20.667 31 35.167 49 43.5s43 12.5 75 12.5c45.333 0 77.666 -9 96.999 -27s29 -45 29 -81v-47h-148
c-55.333 0 -97.5 -12.833 -126.5 -38.5s-43.5 -60.167 -43.5 -103.5c0 -19.333 3.16699 -37.833 9.5 -55.5s15.5 -32.5 27.5 -44.5c15.333 -16 33.833 -27.5 55.5 -34.5s49.5 -10.5 83.5 -10.5c32.667 0 59.5 3.83301 80.5 11.5s41.5 21.5 61.5 41.5v-47h72zM369.001 174
c0 -40.667 -8.33496 -69.002 -25.002 -85.002c-15.333 -15.333 -32.166 -24.666 -50.499 -27.999s-38.166 -5 -59.499 -5c-39.333 0 -68 6.83301 -86 20.5s-27 34.834 -27 63.501c0 58 36.667 87 110 87h138v-53zM376.999 746.998h-86l-88 -153h66z" />
    <glyph glyph-name="acircumflex" unicode="&#xe2;" horiz-adv-x="526" 
d="M441 0l0.000976562 334c0 54 -16.167 94.833 -48.5 122.5s-81.833 41.5 -148.5 41.5c-40 0 -73.5 -5 -100.5 -15s-51.5 -29.333 -73.5 -58l49 -45c14.667 20.667 31 35.167 49 43.5s43 12.5 75 12.5c45.333 0 77.666 -9 96.999 -27s29 -45 29 -81v-47h-148
c-55.333 0 -97.5 -12.833 -126.5 -38.5s-43.5 -60.167 -43.5 -103.5c0 -19.333 3.16699 -37.833 9.5 -55.5s15.5 -32.5 27.5 -44.5c15.333 -16 33.833 -27.5 55.5 -34.5s49.5 -10.5 83.5 -10.5c32.667 0 59.5 3.83301 80.5 11.5s41.5 21.5 61.5 41.5v-47h72zM369.001 174
c0 -40.667 -8.33496 -69.002 -25.002 -85.002c-15.333 -15.333 -32.166 -24.666 -50.499 -27.999s-38.166 -5 -59.499 -5c-39.333 0 -68 6.83301 -86 20.5s-27 34.834 -27 63.501c0 58 36.667 87 110 87h138v-53zM410.999 593.998l-125 153h-68l-125 -153h69l90 104l90 -104
h69z" />
    <glyph glyph-name="atilde" unicode="&#xe3;" horiz-adv-x="526" 
d="M441 0l0.000976562 334c0 54 -16.167 94.833 -48.5 122.5s-81.833 41.5 -148.5 41.5c-40 0 -73.5 -5 -100.5 -15s-51.5 -29.333 -73.5 -58l49 -45c14.667 20.667 31 35.167 49 43.5s43 12.5 75 12.5c45.333 0 77.666 -9 96.999 -27s29 -45 29 -81v-47h-148
c-55.333 0 -97.5 -12.833 -126.5 -38.5s-43.5 -60.167 -43.5 -103.5c0 -19.333 3.16699 -37.833 9.5 -55.5s15.5 -32.5 27.5 -44.5c15.333 -16 33.833 -27.5 55.5 -34.5s49.5 -10.5 83.5 -10.5c32.667 0 59.5 3.83301 80.5 11.5s41.5 21.5 61.5 41.5v-47h72zM369.001 174
c0 -40.667 -8.33496 -69.002 -25.002 -85.002c-15.333 -15.333 -32.166 -24.666 -50.499 -27.999s-38.166 -5 -59.499 -5c-39.333 0 -68 6.83301 -86 20.5s-27 34.834 -27 63.501c0 58 36.667 87 110 87h138v-53zM408.999 658.998l-37 36
c-14.667 -14.667 -26.334 -23.667 -35.001 -27s-16.667 -5 -24 -5c-10 0 -19.167 1.66699 -27.5 5s-17.833 8.33301 -28.5 15c-12.667 7.33301 -24 13.166 -34 17.499s-22.333 6.5 -37 6.5c-6 0 -12.333 -0.5 -19 -1.5s-13.667 -3.33301 -21 -7
s-15.5 -8.83398 -24.5 -15.501s-19.167 -15.667 -30.5 -27l37 -36c14.667 14.667 26.167 23.667 34.5 27s16.5 5 24.5 5c10 0 19.5 -2.16699 28.5 -6.5s18.167 -9.16602 27.5 -14.499c12 -7.33301 23.333 -13 34 -17s23 -6 37 -6c11.333 0 24.333 2.83301 39 8.5
s33.334 19.834 56.001 42.501z" />
    <glyph glyph-name="adieresis" unicode="&#xe4;" horiz-adv-x="526" 
d="M441 0l0.000976562 334c0 54 -16.167 94.833 -48.5 122.5s-81.833 41.5 -148.5 41.5c-40 0 -73.5 -5 -100.5 -15s-51.5 -29.333 -73.5 -58l49 -45c14.667 20.667 31 35.167 49 43.5s43 12.5 75 12.5c45.333 0 77.666 -9 96.999 -27s29 -45 29 -81v-47h-148
c-55.333 0 -97.5 -12.833 -126.5 -38.5s-43.5 -60.167 -43.5 -103.5c0 -19.333 3.16699 -37.833 9.5 -55.5s15.5 -32.5 27.5 -44.5c15.333 -16 33.833 -27.5 55.5 -34.5s49.5 -10.5 83.5 -10.5c32.667 0 59.5 3.83301 80.5 11.5s41.5 21.5 61.5 41.5v-47h72zM369.001 174
c0 -40.667 -8.33496 -69.002 -25.002 -85.002c-15.333 -15.333 -32.166 -24.666 -50.499 -27.999s-38.166 -5 -59.499 -5c-39.333 0 -68 6.83301 -86 20.5s-27 34.834 -27 63.501c0 58 36.667 87 110 87h138v-53zM393.999 601.998v89h-72v-89h72zM181.999 601.998v89h-72
v-89h72z" />
    <glyph glyph-name="aring" unicode="&#xe5;" horiz-adv-x="526" 
d="M441 0l0.000976562 334c0 54 -16.167 94.833 -48.5 122.5s-81.833 41.5 -148.5 41.5c-40 0 -73.5 -5 -100.5 -15s-51.5 -29.333 -73.5 -58l49 -45c14.667 20.667 31 35.167 49 43.5s43 12.5 75 12.5c45.333 0 77.666 -9 96.999 -27s29 -45 29 -81v-47h-148
c-55.333 0 -97.5 -12.833 -126.5 -38.5s-43.5 -60.167 -43.5 -103.5c0 -19.333 3.16699 -37.833 9.5 -55.5s15.5 -32.5 27.5 -44.5c15.333 -16 33.833 -27.5 55.5 -34.5s49.5 -10.5 83.5 -10.5c32.667 0 59.5 3.83301 80.5 11.5s41.5 21.5 61.5 41.5v-47h72zM369.001 174
c0 -40.667 -8.33496 -69.002 -25.002 -85.002c-15.333 -15.333 -32.166 -24.666 -50.499 -27.999s-38.166 -5 -59.499 -5c-39.333 0 -68 6.83301 -86 20.5s-27 34.834 -27 63.501c0 58 36.667 87 110 87h138v-53zM369.999 686.998c0 16.667 -3.16699 32.167 -9.5 46.5
s-14.833 26.833 -25.5 37.5s-23.167 19 -37.5 25s-29.5 9 -45.5 9s-31.167 -3.16699 -45.5 -9.5s-26.833 -14.833 -37.5 -25.5s-19.167 -23.167 -25.5 -37.5s-9.5 -29.5 -9.5 -45.5s3.16699 -31.333 9.5 -46s14.833 -27.334 25.5 -38.001s23.167 -19.167 37.5 -25.5
s29.5 -9.5 45.5 -9.5s31.167 3.16699 45.5 9.5s26.833 14.833 37.5 25.5s19.167 23.334 25.5 38.001s9.5 30 9.5 46zM320.999 686.998c0 -19.333 -6.66699 -35.666 -20 -48.999s-29.666 -20 -48.999 -20s-35.666 6.66699 -48.999 20s-20 29.666 -20 48.999
s6.66699 35.5 20 48.5s29.666 19.5 48.999 19.5s35.666 -6.5 48.999 -19.5s20 -29.167 20 -48.5z" />
    <glyph glyph-name="ae" unicode="&#xe6;" horiz-adv-x="835" 
d="M773 227l0.000976562 33.002c0 73.333 -17.667 131.333 -53 174s-85 64 -149 64c-68 0 -119.333 -25.667 -154 -77c-27.333 51.333 -85 77 -173 77c-40 0 -73.5 -5 -100.5 -15s-51.5 -29.333 -73.5 -58l49 -45c14.667 20.667 31 35.167 49 43.5s43 12.5 75 12.5
c45.333 0 77.666 -9 96.999 -27s29 -45 29 -81v-47h-148c-55.333 0 -97.5 -12.833 -126.5 -38.5s-43.5 -60.167 -43.5 -103.5c0 -19.333 3.16699 -37.833 9.5 -55.5s15.5 -32.5 27.5 -44.5c15.333 -16 33.833 -27.5 55.5 -34.5s49.5 -10.5 83.5 -10.5
c42.667 0 77.667 6.16699 105 18.5s52.333 34.5 75 66.5c18 -29.333 42 -50.833 72 -64.5s64.333 -20.5 103 -20.5c20.667 0 39.5 1.66699 56.5 5s32.667 8.16602 47 14.499s27.833 14.166 40.5 23.499s25.334 20.333 38.001 33l-50 43
c-19.333 -19.333 -38.333 -33.5 -57 -42.5s-42.334 -13.5 -71.001 -13.5c-47.333 0 -83.5 14.833 -108.5 44.5s-37.5 71.5 -37.5 125.5h333zM701.001 281.002l-261.002 0.000976562c1.33301 20 3 35.333 5 46s5.66699 22.667 11 36c9.33301 22.667 24.333 40.667 45 54
s44 20 70 20s49.333 -6.66699 70 -20s35.667 -31.333 45 -54c2.66699 -6.66699 4.83398 -12.834 6.50098 -18.501s3 -11.5 4 -17.5s1.83301 -12.667 2.5 -20s1.33398 -16 2.00098 -26zM368.999 174.003c0 -40.667 -8.33496 -69.002 -25.002 -85.002
c-15.333 -15.333 -32.166 -24.666 -50.499 -27.999s-38.166 -5 -59.499 -5c-39.333 0 -68 6.83301 -86 20.5s-27 34.834 -27 63.501c0 58 36.667 87 110 87h138v-53z" />
    <glyph glyph-name="ccedilla" unicode="&#xe7;" horiz-adv-x="494" 
d="M443 67l-49 47.002c-18.667 -20.667 -36.334 -35.167 -53.001 -43.5s-36.667 -12.5 -60 -12.5c-24 0 -45.667 4.66699 -65 14s-35.666 23.333 -48.999 42c-11.333 16 -19.5 34.167 -24.5 54.5s-7.5 46.166 -7.5 77.499s2.5 57.166 7.5 77.499s13.167 38.5 24.5 54.5
c13.333 18.667 29.666 32.667 48.999 42s41 14 65 14c23.333 0 43.333 -4 60 -12s34.334 -22.333 53.001 -43l49 46c-25.333 27.333 -50.166 46.333 -74.499 57s-53.5 16 -87.5 16c-31.333 0 -60.166 -5.33301 -86.499 -16s-49.333 -26.5 -69 -47.5s-35 -47.167 -46 -78.5
s-16.5 -68 -16.5 -110s5.5 -78.833 16.5 -110.5s26.333 -58 46 -79s42.667 -36.667 69 -47s55.166 -15.5 86.499 -15.5c34 0 63.167 5.33301 87.5 16s49.166 29.667 74.499 57zM313 -66.998h-67l-71 -149h79z" />
    <glyph glyph-name="egrave" unicode="&#xe8;" horiz-adv-x="530" 
d="M467 227v33.0029c0 73.333 -17.667 131.333 -53 174s-85 64 -149 64c-62.667 0 -112 -22 -148 -66s-54 -106 -54 -186c0 -43.333 5.16699 -80.833 15.5 -112.5s24.833 -57.834 43.5 -78.501s41.167 -36 67.5 -46s55.833 -15 88.5 -15c20.667 0 39.5 1.66699 56.5 5
s32.5 8.16602 46.5 14.499s27.167 14.166 39.5 23.499s24.833 20.333 37.5 33l-49 43c-19.333 -19.333 -38.5 -33.5 -57.5 -42.5s-42.833 -13.5 -71.5 -13.5c-47.333 0 -83.333 14.833 -108 44.5s-37 71.5 -37 125.5h332zM395 281.003l-260.002 0.000976562
c0.666992 20 2 35.333 4 46s5.66699 22.667 11 36c9.33301 22.667 24.333 40.667 45 54s44 20 70 20s49.333 -6.66699 70 -20s35.667 -31.333 45 -54c2.66699 -6.66699 4.83398 -12.834 6.50098 -18.501s3 -11.5 4 -17.5s1.83301 -12.667 2.5 -20s1.33398 -16 2.00098 -26z
M316.998 594.004l-88 153h-86l108 -153h66z" />
    <glyph glyph-name="eacute" unicode="&#xe9;" horiz-adv-x="530" 
d="M467 227v33.0029c0 73.333 -17.667 131.333 -53 174s-85 64 -149 64c-62.667 0 -112 -22 -148 -66s-54 -106 -54 -186c0 -43.333 5.16699 -80.833 15.5 -112.5s24.833 -57.834 43.5 -78.501s41.167 -36 67.5 -46s55.833 -15 88.5 -15c20.667 0 39.5 1.66699 56.5 5
s32.5 8.16602 46.5 14.499s27.167 14.166 39.5 23.499s24.833 20.333 37.5 33l-49 43c-19.333 -19.333 -38.5 -33.5 -57.5 -42.5s-42.833 -13.5 -71.5 -13.5c-47.333 0 -83.333 14.833 -108 44.5s-37 71.5 -37 125.5h332zM395 281.003l-260.002 0.000976562
c0.666992 20 2 35.333 4 46s5.66699 22.667 11 36c9.33301 22.667 24.333 40.667 45 54s44 20 70 20s49.333 -6.66699 70 -20s35.667 -31.333 45 -54c2.66699 -6.66699 4.83398 -12.834 6.50098 -18.501s3 -11.5 4 -17.5s1.83301 -12.667 2.5 -20s1.33398 -16 2.00098 -26z
M392.998 747.004h-86l-88 -153h66z" />
    <glyph glyph-name="ecircumflex" unicode="&#xea;" horiz-adv-x="530" 
d="M467 227v33.0029c0 73.333 -17.667 131.333 -53 174s-85 64 -149 64c-62.667 0 -112 -22 -148 -66s-54 -106 -54 -186c0 -43.333 5.16699 -80.833 15.5 -112.5s24.833 -57.834 43.5 -78.501s41.167 -36 67.5 -46s55.833 -15 88.5 -15c20.667 0 39.5 1.66699 56.5 5
s32.5 8.16602 46.5 14.499s27.167 14.166 39.5 23.499s24.833 20.333 37.5 33l-49 43c-19.333 -19.333 -38.5 -33.5 -57.5 -42.5s-42.833 -13.5 -71.5 -13.5c-47.333 0 -83.333 14.833 -108 44.5s-37 71.5 -37 125.5h332zM395 281.003l-260.002 0.000976562
c0.666992 20 2 35.333 4 46s5.66699 22.667 11 36c9.33301 22.667 24.333 40.667 45 54s44 20 70 20s49.333 -6.66699 70 -20s35.667 -31.333 45 -54c2.66699 -6.66699 4.83398 -12.834 6.50098 -18.501s3 -11.5 4 -17.5s1.83301 -12.667 2.5 -20s1.33398 -16 2.00098 -26z
M426.998 594.004l-125 153h-68l-125 -153h69l90 104l90 -104h69z" />
    <glyph glyph-name="edieresis" unicode="&#xeb;" horiz-adv-x="530" 
d="M467 227v33.0029c0 73.333 -17.667 131.333 -53 174s-85 64 -149 64c-62.667 0 -112 -22 -148 -66s-54 -106 -54 -186c0 -43.333 5.16699 -80.833 15.5 -112.5s24.833 -57.834 43.5 -78.501s41.167 -36 67.5 -46s55.833 -15 88.5 -15c20.667 0 39.5 1.66699 56.5 5
s32.5 8.16602 46.5 14.499s27.167 14.166 39.5 23.499s24.833 20.333 37.5 33l-49 43c-19.333 -19.333 -38.5 -33.5 -57.5 -42.5s-42.833 -13.5 -71.5 -13.5c-47.333 0 -83.333 14.833 -108 44.5s-37 71.5 -37 125.5h332zM395 281.003l-260.002 0.000976562
c0.666992 20 2 35.333 4 46s5.66699 22.667 11 36c9.33301 22.667 24.333 40.667 45 54s44 20 70 20s49.333 -6.66699 70 -20s35.667 -31.333 45 -54c2.66699 -6.66699 4.83398 -12.834 6.50098 -18.501s3 -11.5 4 -17.5s1.83301 -12.667 2.5 -20s1.33398 -16 2.00098 -26z
M409.998 602.004v89h-72v-89h72zM197.998 602.004v89h-72v-89h72z" />
    <glyph glyph-name="igrave" unicode="&#xec;" horiz-adv-x="253" 
d="M162 0v492h-72v-492h72zM265 594l-88 153h-86l108 -153h66z" />
    <glyph glyph-name="iacute" unicode="&#xed;" horiz-adv-x="253" 
d="M162 0v492h-72v-492h72zM265 747h-86l-88 -153h66z" />
    <glyph glyph-name="icircumflex" unicode="&#xee;" horiz-adv-x="253" 
d="M162 0v492h-72v-492h72zM409 594l-125 153h-68l-125 -153h69l90 104l90 -104h69z" />
    <glyph glyph-name="idieresis" unicode="&#xef;" horiz-adv-x="253" 
d="M162 0v492h-72v-492h72zM375 602v89h-72v-89h72zM163 602v89h-72v-89h72z" />
    <glyph glyph-name="eth" unicode="&#xf0;" horiz-adv-x="530" 
d="M465 244c0 22 -0.833008 41.665 -2.5 58.998s-4.66699 34.5 -9 51.5s-10.666 34.5 -18.999 52.5s-19.166 38.667 -32.499 62l-63 111h54v52h-82l-47 82h-75l47 -82h-88v-52h116l58 -99c-11.333 5.33301 -23.5 8.5 -36.5 9.5s-25.833 1.16699 -38.5 0.5
c-50.667 -3.33301 -91.334 -20.666 -122.001 -51.999c-25.333 -25.333 -41.5 -54.666 -48.5 -87.999s-10.5 -69 -10.5 -107s3.5 -73.667 10.5 -107s23.167 -62.666 48.5 -87.999c16.667 -17.333 36.667 -30.833 60 -40.5s50 -14.5 80 -14.5s56.667 4.83301 80 14.5
s43.333 23.167 60 40.5c25.333 25.333 41.666 54.666 48.999 87.999s11 69 11 107zM393 243.998c0 -28 -2.00195 -55.5 -6.00195 -82.5s-15 -49.5 -33 -67.5c-24 -24 -53.667 -36 -89 -36c-34.667 0 -64 12 -88 36c-18 18 -29 40.5 -33 67.5s-6 54.5 -6 82.5
c0 14 0.333008 28 1 42s2.33398 27.5 5.00098 40.5s6.5 25.333 11.5 37s12.167 22.167 21.5 31.5c24 24 53.333 36 88 36c35.333 0 65 -12 89 -36c8.66699 -9.33301 15.667 -19.833 21 -31.5s9.33301 -24 12 -37s4.33398 -26.5 5.00098 -40.5s1 -28 1 -42z" />
    <glyph glyph-name="ntilde" unicode="&#xf1;" horiz-adv-x="562" 
d="M477 0l-0.000976562 315c0 58 -17 103.667 -51 137c-30.667 30.667 -72.667 46 -126 46c-28 0 -53.667 -5 -77 -15s-43.666 -25 -60.999 -45v54h-72v-492h72v303c0 43.333 11 76 33 98s51.667 33 89 33s66.833 -10.833 88.5 -32.5s32.5 -54.5 32.5 -98.5v-303h72z
M441.999 659l-37 36c-14.667 -14.667 -26.334 -23.667 -35.001 -27s-16.667 -5 -24 -5c-10 0 -19.167 1.66699 -27.5 5s-17.833 8.33301 -28.5 15c-12.667 7.33301 -24 13.166 -34 17.499s-22.333 6.5 -37 6.5c-6 0 -12.333 -0.5 -19 -1.5s-13.667 -3.33301 -21 -7
s-15.5 -8.83398 -24.5 -15.501s-19.167 -15.667 -30.5 -27l37 -36c14.667 14.667 26.167 23.667 34.5 27s16.5 5 24.5 5c10 0 19.5 -2.16699 28.5 -6.5s18.167 -9.16602 27.5 -14.499c12 -7.33301 23.333 -13 34 -17s23 -6 37 -6c11.333 0 24.333 2.83301 39 8.5
s33.334 19.834 56.001 42.501z" />
    <glyph glyph-name="ograve" unicode="&#xf2;" horiz-adv-x="530" 
d="M466 246c0 38 -3.83301 73.832 -11.5 107.499s-23.834 63.167 -48.501 88.5c-17.333 17.333 -37.666 31 -60.999 41s-50 15 -80 15s-56.667 -5 -80 -15s-43.666 -23.667 -60.999 -41c-12.667 -12.667 -22.834 -26.5 -30.501 -41.5s-13.667 -30.667 -18 -47
s-7.33301 -33.666 -9 -51.999s-2.5 -36.833 -2.5 -55.5c0 -19.333 0.833008 -38 2.5 -56s4.66699 -35.167 9 -51.5s10.333 -32 18 -47s17.834 -28.833 30.501 -41.5c17.333 -17.333 37.666 -31 60.999 -41s50 -15 80 -15s56.667 5 80 15s43.666 23.667 60.999 41
c24.667 25.333 40.834 54.833 48.501 88.5s11.5 69.5 11.5 107.5zM394 245.999c0 -14 -0.333008 -28 -1 -42s-2.33398 -27.667 -5.00098 -41s-6.66699 -26 -12 -38s-12.333 -22.333 -21 -31c-24 -24 -54 -36 -90 -36c-35.333 0 -65 12 -89 36
c-9.33301 8.66699 -16.5 19 -21.5 31s-9 24.667 -12 38s-4.83301 27 -5.5 41s-1 28 -1 42s0.333008 28 1 42s2.5 27.667 5.5 41s7 25.833 12 37.5s12.167 22.167 21.5 31.5c24 24 53.667 36 89 36c36 0 66 -12 90 -36c8.66699 -9.33301 15.667 -19.833 21 -31.5
s9.33301 -24.167 12 -37.5s4.33398 -27 5.00098 -41s1 -28 1 -42zM304 593.999l-88 153h-86l108 -153h66z" />
    <glyph glyph-name="oacute" unicode="&#xf3;" horiz-adv-x="530" 
d="M466 246c0 38 -3.83301 73.832 -11.5 107.499s-23.834 63.167 -48.501 88.5c-17.333 17.333 -37.666 31 -60.999 41s-50 15 -80 15s-56.667 -5 -80 -15s-43.666 -23.667 -60.999 -41c-12.667 -12.667 -22.834 -26.5 -30.501 -41.5s-13.667 -30.667 -18 -47
s-7.33301 -33.666 -9 -51.999s-2.5 -36.833 -2.5 -55.5c0 -19.333 0.833008 -38 2.5 -56s4.66699 -35.167 9 -51.5s10.333 -32 18 -47s17.834 -28.833 30.501 -41.5c17.333 -17.333 37.666 -31 60.999 -41s50 -15 80 -15s56.667 5 80 15s43.666 23.667 60.999 41
c24.667 25.333 40.834 54.833 48.501 88.5s11.5 69.5 11.5 107.5zM394 245.999c0 -14 -0.333008 -28 -1 -42s-2.33398 -27.667 -5.00098 -41s-6.66699 -26 -12 -38s-12.333 -22.333 -21 -31c-24 -24 -54 -36 -90 -36c-35.333 0 -65 12 -89 36
c-9.33301 8.66699 -16.5 19 -21.5 31s-9 24.667 -12 38s-4.83301 27 -5.5 41s-1 28 -1 42s0.333008 28 1 42s2.5 27.667 5.5 41s7 25.833 12 37.5s12.167 22.167 21.5 31.5c24 24 53.667 36 89 36c36 0 66 -12 90 -36c8.66699 -9.33301 15.667 -19.833 21 -31.5
s9.33301 -24.167 12 -37.5s4.33398 -27 5.00098 -41s1 -28 1 -42zM390 746.999h-86l-88 -153h66z" />
    <glyph glyph-name="ocircumflex" unicode="&#xf4;" horiz-adv-x="530" 
d="M466 246c0 38 -3.83301 73.832 -11.5 107.499s-23.834 63.167 -48.501 88.5c-17.333 17.333 -37.666 31 -60.999 41s-50 15 -80 15s-56.667 -5 -80 -15s-43.666 -23.667 -60.999 -41c-12.667 -12.667 -22.834 -26.5 -30.501 -41.5s-13.667 -30.667 -18 -47
s-7.33301 -33.666 -9 -51.999s-2.5 -36.833 -2.5 -55.5c0 -19.333 0.833008 -38 2.5 -56s4.66699 -35.167 9 -51.5s10.333 -32 18 -47s17.834 -28.833 30.501 -41.5c17.333 -17.333 37.666 -31 60.999 -41s50 -15 80 -15s56.667 5 80 15s43.666 23.667 60.999 41
c24.667 25.333 40.834 54.833 48.501 88.5s11.5 69.5 11.5 107.5zM394 245.999c0 -14 -0.333008 -28 -1 -42s-2.33398 -27.667 -5.00098 -41s-6.66699 -26 -12 -38s-12.333 -22.333 -21 -31c-24 -24 -54 -36 -90 -36c-35.333 0 -65 12 -89 36
c-9.33301 8.66699 -16.5 19 -21.5 31s-9 24.667 -12 38s-4.83301 27 -5.5 41s-1 28 -1 42s0.333008 28 1 42s2.5 27.667 5.5 41s7 25.833 12 37.5s12.167 22.167 21.5 31.5c24 24 53.667 36 89 36c36 0 66 -12 90 -36c8.66699 -9.33301 15.667 -19.833 21 -31.5
s9.33301 -24.167 12 -37.5s4.33398 -27 5.00098 -41s1 -28 1 -42zM424 593.999l-125 153h-68l-125 -153h69l90 104l90 -104h69z" />
    <glyph glyph-name="otilde" unicode="&#xf5;" horiz-adv-x="530" 
d="M466 246c0 38 -3.83301 73.832 -11.5 107.499s-23.834 63.167 -48.501 88.5c-17.333 17.333 -37.666 31 -60.999 41s-50 15 -80 15s-56.667 -5 -80 -15s-43.666 -23.667 -60.999 -41c-12.667 -12.667 -22.834 -26.5 -30.501 -41.5s-13.667 -30.667 -18 -47
s-7.33301 -33.666 -9 -51.999s-2.5 -36.833 -2.5 -55.5c0 -19.333 0.833008 -38 2.5 -56s4.66699 -35.167 9 -51.5s10.333 -32 18 -47s17.834 -28.833 30.501 -41.5c17.333 -17.333 37.666 -31 60.999 -41s50 -15 80 -15s56.667 5 80 15s43.666 23.667 60.999 41
c24.667 25.333 40.834 54.833 48.501 88.5s11.5 69.5 11.5 107.5zM394 245.999c0 -14 -0.333008 -28 -1 -42s-2.33398 -27.667 -5.00098 -41s-6.66699 -26 -12 -38s-12.333 -22.333 -21 -31c-24 -24 -54 -36 -90 -36c-35.333 0 -65 12 -89 36
c-9.33301 8.66699 -16.5 19 -21.5 31s-9 24.667 -12 38s-4.83301 27 -5.5 41s-1 28 -1 42s0.333008 28 1 42s2.5 27.667 5.5 41s7 25.833 12 37.5s12.167 22.167 21.5 31.5c24 24 53.667 36 89 36c36 0 66 -12 90 -36c8.66699 -9.33301 15.667 -19.833 21 -31.5
s9.33301 -24.167 12 -37.5s4.33398 -27 5.00098 -41s1 -28 1 -42zM422 658.999l-37 36c-14.667 -14.667 -26.334 -23.667 -35.001 -27s-16.667 -5 -24 -5c-10 0 -19.167 1.66699 -27.5 5s-17.833 8.33301 -28.5 15c-12.667 7.33301 -24 13.166 -34 17.499
s-22.333 6.5 -37 6.5c-6 0 -12.333 -0.5 -19 -1.5s-13.667 -3.33301 -21 -7s-15.5 -8.83398 -24.5 -15.501s-19.167 -15.667 -30.5 -27l37 -36c14.667 14.667 26.167 23.667 34.5 27s16.5 5 24.5 5c10 0 19.5 -2.16699 28.5 -6.5s18.167 -9.16602 27.5 -14.499
c12 -7.33301 23.333 -13 34 -17s23 -6 37 -6c11.333 0 24.333 2.83301 39 8.5s33.334 19.834 56.001 42.501z" />
    <glyph glyph-name="odieresis" unicode="&#xf6;" horiz-adv-x="530" 
d="M466 246c0 38 -3.83301 73.832 -11.5 107.499s-23.834 63.167 -48.501 88.5c-17.333 17.333 -37.666 31 -60.999 41s-50 15 -80 15s-56.667 -5 -80 -15s-43.666 -23.667 -60.999 -41c-12.667 -12.667 -22.834 -26.5 -30.501 -41.5s-13.667 -30.667 -18 -47
s-7.33301 -33.666 -9 -51.999s-2.5 -36.833 -2.5 -55.5c0 -19.333 0.833008 -38 2.5 -56s4.66699 -35.167 9 -51.5s10.333 -32 18 -47s17.834 -28.833 30.501 -41.5c17.333 -17.333 37.666 -31 60.999 -41s50 -15 80 -15s56.667 5 80 15s43.666 23.667 60.999 41
c24.667 25.333 40.834 54.833 48.501 88.5s11.5 69.5 11.5 107.5zM394 245.999c0 -14 -0.333008 -28 -1 -42s-2.33398 -27.667 -5.00098 -41s-6.66699 -26 -12 -38s-12.333 -22.333 -21 -31c-24 -24 -54 -36 -90 -36c-35.333 0 -65 12 -89 36
c-9.33301 8.66699 -16.5 19 -21.5 31s-9 24.667 -12 38s-4.83301 27 -5.5 41s-1 28 -1 42s0.333008 28 1 42s2.5 27.667 5.5 41s7 25.833 12 37.5s12.167 22.167 21.5 31.5c24 24 53.667 36 89 36c36 0 66 -12 90 -36c8.66699 -9.33301 15.667 -19.833 21 -31.5
s9.33301 -24.167 12 -37.5s4.33398 -27 5.00098 -41s1 -28 1 -42zM407 601.999v89h-72v-89h72zM195 601.999v89h-72v-89h72z" />
    <glyph glyph-name="divide" unicode="&#xf7;" 
d="M304 404v86h-86v-86h86zM471 236v67h-420v-67h420zM304 49v86h-86v-86h86z" />
    <glyph glyph-name="oslash" unicode="&#xf8;" horiz-adv-x="530" 
d="M466 246c0 38 -3.66699 73.499 -11 106.499s-23 62.167 -47 87.5l57 96h-56l-39 -65c-14.667 8.66699 -30.667 15.334 -48 20.001s-36.333 7 -57 7c-30 0 -56.667 -5 -80 -15s-43.666 -23.667 -60.999 -41c-12.667 -12.667 -22.834 -26.5 -30.501 -41.5
s-13.667 -30.667 -18 -47s-7.33301 -33.666 -9 -51.999s-2.5 -36.833 -2.5 -55.5c0 -38 3.66699 -73.5 11 -106.5s23 -62.167 47 -87.5l-57 -96h57l38 65c14.667 -8.66699 30.667 -15.334 48 -20.001s36.333 -7 57 -7c30 0 56.667 5 80 15s43.666 23.667 60.999 41
c24.667 25.333 40.834 54.833 48.501 88.5s11.5 69.5 11.5 107.5zM394 245.999c0 -14 -0.331055 -28 -0.998047 -42s-2.33398 -27.667 -5.00098 -41s-6.66699 -26 -12 -38s-12.333 -22.333 -21 -31c-24 -24 -54 -36 -90 -36c-27.333 0 -51.333 7.33301 -72 22l177 299
c11.333 -18 18.166 -38.833 20.499 -62.5s3.5 -47.167 3.5 -70.5zM337.002 412.999l-176 -300c-11.333 18 -18.333 38.833 -21 62.5s-4 47.167 -4 70.5c0 14 0.333008 28 1 42s2.5 27.667 5.5 41s7 25.833 12 37.5s12.167 22.167 21.5 31.5c24 24 53.667 36 89 36
c28 0 52 -7 72 -21z" />
    <glyph glyph-name="ugrave" unicode="&#xf9;" horiz-adv-x="563" 
d="M472 0l-0.00195312 492h-72v-303c0 -43.333 -11.167 -76 -33.5 -98s-52.166 -33 -89.499 -33s-66.666 10.833 -87.999 32.5s-32 54.5 -32 98.5v303h-72v-314c0 -28.667 4 -54.5 12 -77.5s20.667 -43.167 38 -60.5c30.667 -30.667 73 -46 127 -46
c28 0 53.833 5.16699 77.5 15.5s44.167 25.5 61.5 45.5v-55h71zM326.998 594l-88 153h-86l108 -153h66z" />
    <glyph glyph-name="uacute" unicode="&#xfa;" horiz-adv-x="563" 
d="M472 0l-0.00195312 492h-72v-303c0 -43.333 -11.167 -76 -33.5 -98s-52.166 -33 -89.499 -33s-66.666 10.833 -87.999 32.5s-32 54.5 -32 98.5v303h-72v-314c0 -28.667 4 -54.5 12 -77.5s20.667 -43.167 38 -60.5c30.667 -30.667 73 -46 127 -46
c28 0 53.833 5.16699 77.5 15.5s44.167 25.5 61.5 45.5v-55h71zM402.998 747h-86l-88 -153h66z" />
    <glyph glyph-name="ucircumflex" unicode="&#xfb;" horiz-adv-x="563" 
d="M472 0l-0.00195312 492h-72v-303c0 -43.333 -11.167 -76 -33.5 -98s-52.166 -33 -89.499 -33s-66.666 10.833 -87.999 32.5s-32 54.5 -32 98.5v303h-72v-314c0 -28.667 4 -54.5 12 -77.5s20.667 -43.167 38 -60.5c30.667 -30.667 73 -46 127 -46
c28 0 53.833 5.16699 77.5 15.5s44.167 25.5 61.5 45.5v-55h71zM436.998 594l-125 153h-68l-125 -153h69l90 104l90 -104h69z" />
    <glyph glyph-name="udieresis" unicode="&#xfc;" horiz-adv-x="563" 
d="M472 0l-0.00195312 492h-72v-303c0 -43.333 -11.167 -76 -33.5 -98s-52.166 -33 -89.499 -33s-66.666 10.833 -87.999 32.5s-32 54.5 -32 98.5v303h-72v-314c0 -28.667 4 -54.5 12 -77.5s20.667 -43.167 38 -60.5c30.667 -30.667 73 -46 127 -46
c28 0 53.833 5.16699 77.5 15.5s44.167 25.5 61.5 45.5v-55h71zM419.998 602v89h-72v-89h72zM207.998 602v89h-72v-89h72z" />
    <glyph glyph-name="yacute" unicode="&#xfd;" horiz-adv-x="446" 
d="M436 492h-77.999l-134 -395l-135 395h-78l177 -482l-35 -96c-8 -22.667 -17.333 -38.5 -28 -47.5s-28.334 -13.5 -53.001 -13.5h-22v-64h31c17.333 0 34.333 2.5 51 7.5s31.667 13.833 45 26.5c14 12.667 25.667 32 35 58zM348.001 747h-86l-88 -153h66z" />
    <glyph glyph-name="thorn" unicode="&#xfe;" horiz-adv-x="546" 
d="M481 246c0 19.333 -0.833008 38.6689 -2.5 58.002s-4.66699 38.166 -9 56.499s-10.333 35.5 -18 51.5s-17.834 30.333 -30.501 43c-13.333 13.333 -30.333 23.833 -51 31.5s-43.667 11.5 -69 11.5c-27.333 0 -52.333 -4.16699 -75 -12.5s-44 -25.166 -64 -50.499v277h-72
v-932h72v278c20 -25.333 41.333 -42.333 64 -51s47.667 -13 75 -13c25.333 0 48.333 3.83301 69 11.5s37.667 18.167 51 31.5c12.667 12.667 22.834 27 30.501 43s13.667 33.167 18 51.5s7.33301 37.166 9 56.499s2.5 38.666 2.5 57.999zM409 246.003
c0 -24 -1.33301 -47.333 -4 -70s-8.33398 -42.667 -17.001 -60s-21.167 -31.333 -37.5 -42s-37.833 -16 -64.5 -16s-48.167 5.33301 -64.5 16s-28.833 24.667 -37.5 42s-14.5 37.333 -17.5 60s-4.5 46 -4.5 70s1.5 47.333 4.5 70s8.83301 42.667 17.5 60
s21.167 31.333 37.5 42s37.833 16 64.5 16s48.167 -5.33301 64.5 -16s28.833 -24.667 37.5 -42s14.334 -37.333 17.001 -60s4 -46 4 -70z" />
    <glyph glyph-name="ydieresis" unicode="&#xff;" horiz-adv-x="446" 
d="M436 492h-77.999l-134 -395l-135 395h-78l177 -482l-35 -96c-8 -22.667 -17.333 -38.5 -28 -47.5s-28.334 -13.5 -53.001 -13.5h-22v-64h31c17.333 0 34.333 2.5 51 7.5s31.667 13.833 45 26.5c14 12.667 25.667 32 35 58zM365.001 602v89h-72v-89h72zM153.001 602v89
h-72v-89h72z" />
    <glyph glyph-name="dotlessi" unicode="&#x131;" horiz-adv-x="253" 
d="M162 0v492h-72v-492h72z" />
    <glyph glyph-name="Lslash" unicode="&#x141;" horiz-adv-x="582" 
d="M552 0v68h-363v270l154 98v66l-154 -98v308h-77v-356l-73 -46v-67l73 46v-289h440z" />
    <glyph glyph-name="lslash" unicode="&#x142;" horiz-adv-x="315" 
d="M278 0v62h-40c-25.333 0 -42.666 6 -51.999 18s-14 30 -14 54v252l81 50v62l-81 -50v264h-72v-308l-63 -39v-62l63 39v-211c0 -37.333 10.167 -68.5 30.5 -93.5s52.166 -37.5 95.499 -37.5h52z" />
    <glyph glyph-name="OE" unicode="&#x152;" horiz-adv-x="989" 
d="M933 0v67.0029h-360c0 40 0.166992 83.333 0.5 130s0.5 90 0.5 130h304v64h-304c0 38.667 -0.166992 80.834 -0.5 126.501s-0.5 88.167 -0.5 127.5h358v67h-434v-74c-22 27.333 -47.5 47.5 -76.5 60.5s-61.167 19.5 -96.5 19.5c-71.333 0 -131.666 -24.667 -180.999 -74
c-16.667 -16.667 -29.5 -33.834 -38.5 -51.501s-15.667 -37.834 -20 -60.501s-6.83301 -48.167 -7.5 -76.5s-1 -61.5 -1 -99.5s0.333008 -71.167 1 -99.5s3.16699 -53.833 7.5 -76.5s11 -42.834 20 -60.501s21.833 -34.834 38.5 -51.501
c49.333 -49.333 109.666 -74 180.999 -74c32.667 0 64.167 6.5 94.5 19.5s56.5 33.167 78.5 60.5v-74h436zM497 356.003c0 -37.333 -0.5 -68.833 -1.5 -94.5s-3.16699 -47.5 -6.5 -65.5s-8.16602 -33.5 -14.499 -46.5s-15.166 -25.167 -26.499 -36.5
c-15.333 -16 -33.833 -28.5 -55.5 -37.5s-44.167 -13.5 -67.5 -13.5s-45.833 4.5 -67.5 13.5s-40.167 21.5 -55.5 37.5c-11.333 11.333 -20.333 23.5 -27 36.5s-11.667 28.5 -15 46.5s-5.5 39.833 -6.5 65.5s-1.5 57.167 -1.5 94.5s0.5 68.833 1.5 94.5
s3.16699 47.5 6.5 65.5s8.33301 33.5 15 46.5s15.667 25.167 27 36.5c15.333 16 33.833 28.5 55.5 37.5s44.167 13.5 67.5 13.5s45.833 -4.5 67.5 -13.5s40.167 -21.5 55.5 -37.5c11.333 -11.333 20.166 -23.5 26.499 -36.5s11.166 -28.5 14.499 -46.5
s5.5 -39.833 6.5 -65.5s1.5 -57.167 1.5 -94.5z" />
    <glyph glyph-name="oe" unicode="&#x153;" horiz-adv-x="861" 
d="M798 227l0.00195312 33.001c0 73.333 -17.667 131.333 -53 174s-85 64 -149 64c-74.667 0 -129 -31.667 -163 -95c-15.333 30 -37.833 53.333 -67.5 70s-63.167 25 -100.5 25c-30 0 -56.667 -5 -80 -15s-43.666 -23.667 -60.999 -41
c-12.667 -12.667 -22.834 -26.5 -30.501 -41.5s-13.667 -30.667 -18 -47s-7.33301 -33.666 -9 -51.999s-2.5 -36.833 -2.5 -55.5c0 -19.333 0.833008 -38 2.5 -56s4.66699 -35.167 9 -51.5s10.333 -32 18 -47s17.834 -28.833 30.501 -41.5
c17.333 -17.333 37.666 -31 60.999 -41s50 -15 80 -15c37.333 0 70.666 8.33301 99.999 25s51.666 40 66.999 70c35.333 -63.333 94.333 -95 177 -95c20.667 0 39.5 1.66699 56.5 5s32.5 8.16602 46.5 14.499s27.167 14.166 39.5 23.499s24.833 20.333 37.5 33l-49 43
c-19.333 -19.333 -38.5 -33.5 -57.5 -42.5s-42.833 -13.5 -71.5 -13.5c-47.333 0 -83.333 14.833 -108 44.5s-37 71.5 -37 125.5h332zM727.002 281.001h-261c0.666992 20 2 35.333 4 46s5.66699 22.667 11 36c9.33301 22.667 24.333 40.667 45 54s44 20 70 20
s49.333 -6.66699 70 -20s35.667 -31.333 45 -54c5.33301 -13.333 9 -25.333 11 -36s3.66699 -26 5 -46zM394.002 246.001c0 -14 -0.333008 -28 -1 -42s-2.33398 -27.667 -5.00098 -41s-6.66699 -26 -12 -38s-12.333 -22.333 -21 -31c-24 -24 -54 -36 -90 -36
c-35.333 0 -65 12 -89 36c-9.33301 8.66699 -16.5 19 -21.5 31s-9 24.667 -12 38s-4.83301 27 -5.5 41s-1 28 -1 42s0.333008 28 1 42s2.5 27.667 5.5 41s7 25.833 12 37.5s12.167 22.167 21.5 31.5c24 24 53.667 36 89 36c36 0 66 -12 90 -36
c8.66699 -9.33301 15.667 -19.833 21 -31.5s9.33301 -24.167 12 -37.5s4.33398 -27 5.00098 -41s1 -28 1 -42z" />
    <glyph glyph-name="Scaron" unicode="&#x160;" horiz-adv-x="588" 
d="M532 196c0 60 -20 107.003 -60 141.003c-7.33301 6.66699 -15.166 12.5 -23.499 17.5s-17.5 9.5 -27.5 13.5s-21.5 7.5 -34.5 10.5s-27.833 5.83301 -44.5 8.5l-78 12c-18.667 3.33301 -36.5 8.33301 -53.5 15s-31.167 14.667 -42.5 24c-21.333 18.667 -32 46 -32 82
c0 40 13 72 39 96s63 36 111 36c38 0 69.667 -5.16699 95 -15.5s49 -25.5 71 -45.5l49 49c-30.667 27.333 -62.334 47.166 -95.001 59.499s-71.667 18.5 -117 18.5c-35.333 0 -67 -4.83301 -95 -14.5s-51.833 -23.167 -71.5 -40.5s-34.834 -38.5 -45.501 -63.5
s-16 -52.5 -16 -82.5c0 -56.667 18 -101 54 -133c30.667 -26.667 74.334 -44.667 131.001 -54l83 -13c26 -4 45.167 -8.16699 57.5 -12.5s24.166 -11.5 35.499 -21.5s19.833 -22.667 25.5 -38s8.5 -32.333 8.5 -51c0 -42 -15 -74.5 -45 -97.5s-71 -34.5 -123 -34.5
c-40 0 -75 5.66699 -105 17s-59.667 31.666 -89 60.999l-52 -52c33.333 -33.333 69 -57.333 107 -72s83.667 -22 137 -22c36.667 0 70.167 4.66699 100.5 14s56.333 22.666 78 39.999s38.334 38.5 50.001 63.5s17.5 53.167 17.5 84.5zM448 934.003h-69l-90 -105l-90 105h-69
l125 -153h68z" />
    <glyph glyph-name="scaron" unicode="&#x161;" horiz-adv-x="496" 
d="M445 144c0 22.667 -3.5 42 -10.5 58s-16.833 29.333 -29.5 40s-28 18.667 -46 24s-37.667 9 -59 11l-79 7c-31.333 2.66699 -53.5 10 -66.5 22s-19.5 28.667 -19.5 50c0 25.333 9.33301 45.166 28 59.499s46 21.5 82 21.5c25.333 0 49.166 -3.16699 71.499 -9.5
s42.166 -16.166 59.499 -29.499l47 47c-22 18 -48.167 31.333 -78.5 40s-63.166 13 -98.499 13c-26 0 -50.167 -3.33301 -72.5 -10s-41.5 -16.167 -57.5 -28.5s-28.5 -27.333 -37.5 -45s-13.5 -37.834 -13.5 -60.501c0 -40.667 12.5 -71.834 37.5 -93.501
s61.5 -34.5 109.5 -38.5l81 -7c28.667 -2.66699 49.5 -10 62.5 -22s19.5 -28.667 19.5 -50c0 -29.333 -11.667 -51.166 -35 -65.499s-55.333 -21.5 -96 -21.5c-30.667 0 -59 4.33301 -85 13s-48.667 23.334 -68 44.001l-48 -48c27.333 -26 57.333 -44.333 90 -55
s70 -16 112 -16c30 0 57.167 3.33301 81.5 10s45.333 16.5 63 29.5s31.334 28.667 41.001 47s14.5 39.5 14.5 63.5zM406 747h-69l-90 -105l-90 105h-69l125 -153h68z" />
    <glyph glyph-name="Ydieresis" unicode="&#x178;" horiz-adv-x="515" 
d="M506 712h-82l-166 -341l-168 341h-82l212 -418v-294h76v294zM399 789v89h-72v-89h72zM187 789v89h-72v-89h72z" />
    <glyph glyph-name="Zcaron" unicode="&#x17d;" horiz-adv-x="556" 
d="M499 0v68h-359l359 580v64h-428v-68h342l-356 -572v-72h442zM443 934h-69l-90 -105l-90 105h-69l125 -153h68z" />
    <glyph glyph-name="zcaron" unicode="&#x17e;" horiz-adv-x="459" 
d="M407 0v64h-275l275 367v61h-342v-64h259l-274 -366v-62h357zM396 747h-69l-90 -105l-90 105h-69l125 -153h68z" />
    <glyph glyph-name="florin" unicode="&#x192;" horiz-adv-x="403" 
d="M373 652l0.000976562 61.999h-52c-21.333 0 -40.333 -3.5 -57 -10.5s-31.334 -16.5 -44.001 -28.5s-23 -26 -31 -42s-13.667 -33 -17 -51l-34 -198h-108v-54h98l-97 -550h72l97 550h115v54h-105l34 196c4 22.667 12.333 40.334 25 53.001s30.667 19 54 19h50z" />
    <glyph glyph-name="circumflex" unicode="&#x2c6;" horiz-adv-x="500" 
d="M409 594l-125 153h-68l-125 -153h69l90 104l90 -104h69z" />
    <glyph glyph-name="caron" unicode="&#x2c7;" horiz-adv-x="500" 
d="M409 747h-69l-90 -105l-90 105h-69l125 -153h68z" />
    <glyph glyph-name="breve" unicode="&#x2d8;" horiz-adv-x="500" 
d="M415 727h-55.001c-3.33301 -26 -14.5 -46.167 -33.5 -60.5s-43.833 -21.5 -74.5 -21.5s-55.667 7.16699 -75 21.5s-30.666 34.5 -33.999 60.5h-58c8 -92.667 63.667 -139 167 -139c100.667 0 155 46.333 163 139z" />
    <glyph glyph-name="dotaccent" unicode="&#x2d9;" horiz-adv-x="500" 
d="M290 634v74h-80v-74h80z" />
    <glyph glyph-name="ring" unicode="&#x2da;" horiz-adv-x="500" 
d="M368 687c0 16.667 -3.16699 32.167 -9.5 46.5s-14.833 26.833 -25.5 37.5s-23.167 19 -37.5 25s-29.5 9 -45.5 9s-31.167 -3.16699 -45.5 -9.5s-26.833 -14.833 -37.5 -25.5s-19.167 -23.167 -25.5 -37.5s-9.5 -29.5 -9.5 -45.5s3.16699 -31.333 9.5 -46
s14.833 -27.334 25.5 -38.001s23.167 -19.167 37.5 -25.5s29.5 -9.5 45.5 -9.5s31.167 3.16699 45.5 9.5s26.833 14.833 37.5 25.5s19.167 23.334 25.5 38.001s9.5 30 9.5 46zM319 687c0 -19.333 -6.66699 -35.666 -20 -48.999s-29.666 -20 -48.999 -20
s-35.666 6.66699 -48.999 20s-20 29.666 -20 48.999s6.66699 35.5 20 48.5s29.666 19.5 48.999 19.5s35.666 -6.5 48.999 -19.5s20 -29.167 20 -48.5z" />
    <glyph glyph-name="ogonek" unicode="&#x2db;" horiz-adv-x="500" 
d="M323 -216l-71 149h-66l59 -149h78z" />
    <glyph glyph-name="tilde" unicode="&#x2dc;" horiz-adv-x="500" 
d="M407 659l-37 36c-14.667 -14.667 -26.334 -23.667 -35.001 -27s-16.667 -5 -24 -5c-10 0 -19.167 1.66699 -27.5 5s-17.833 8.33301 -28.5 15c-12.667 7.33301 -24 13.166 -34 17.499s-22.333 6.5 -37 6.5c-6 0 -12.333 -0.5 -19 -1.5s-13.667 -3.33301 -21 -7
s-15.5 -8.83398 -24.5 -15.501s-19.167 -15.667 -30.5 -27l37 -36c14.667 14.667 26.167 23.667 34.5 27s16.5 5 24.5 5c10 0 19.5 -2.16699 28.5 -6.5s18.167 -9.16602 27.5 -14.499c12 -7.33301 23.333 -13 34 -17s23 -6 37 -6c11.333 0 24.333 2.83301 39 8.5
s33.334 19.834 56.001 42.501z" />
    <glyph glyph-name="hungarumlaut" unicode="&#x2dd;" horiz-adv-x="500" 
d="M447 747h-85l-89 -153h65zM284 747h-85l-89 -153h66z" />
    <glyph glyph-name="Delta" unicode="&#x394;" horiz-adv-x="603" 
d="M594 0l-261 712h-63l-262 -712h586zM495 66h-387l194 537z" />
    <glyph glyph-name="Omega" unicode="&#x3a9;" horiz-adv-x="650" 
d="M574 0l-0.000976562 67h-83c13.333 11.333 24.5 22.333 33.5 33s16.5 22 22.5 34c7.33301 14 12.833 29.667 16.5 47s6.33398 35.5 8.00098 54.5s2.5 38.5 2.5 58.5v62c0 38 -0.333008 71.167 -1 99.5s-3.16699 53.666 -7.5 75.999s-11 42.5 -20 60.5
s-21.833 35.333 -38.5 52c-49.333 49.333 -110 74 -182 74s-132.667 -24.667 -182 -74c-16.667 -16.667 -29.5 -34 -38.5 -52s-15.667 -38.167 -20 -60.5s-6.83301 -47.666 -7.5 -75.999s-1 -61.5 -1 -99.5v-62c0 -20 0.833008 -39.5 2.5 -58.5
s4.33398 -37.167 8.00098 -54.5s9.16699 -33 16.5 -47c6 -12 13.333 -23.333 22 -34s19.667 -21.667 33 -33h-82v-67h195v64c-20 9.33301 -37.5 19.666 -52.5 30.999s-28.167 26.333 -39.5 45s-18.666 45 -21.999 79s-5 79 -5 135c0 37.333 0.5 69 1.5 95
s3.33301 48.167 7 66.5s8.66699 34 15 47s15.166 25.167 26.499 36.5c16 16 34.667 28.5 56 37.5s43.666 13.5 66.999 13.5s45.666 -4.5 66.999 -13.5s40 -21.5 56 -37.5c10.667 -11.333 19.334 -23.5 26.001 -36.5s11.667 -28.667 15 -47s5.5 -40.5 6.5 -66.5
s1.5 -57.667 1.5 -95c0 -56 -1.5 -101 -4.5 -135s-10.167 -60.333 -21.5 -79s-24.5 -33.667 -39.5 -45s-32.5 -21.666 -52.5 -30.999v-64h195z" />
    <glyph glyph-name="pi" unicode="&#x3c0;" horiz-adv-x="591" 
d="M490 0v492h-389v-492h70v427h250v-427h69z" />
    <glyph glyph-name="endash" unicode="&#x2013;" 
d="M470 236v67h-418v-67h418z" />
    <glyph glyph-name="emdash" unicode="&#x2014;" horiz-adv-x="914" 
d="M838 236v68h-762v-68h762z" />
    <glyph glyph-name="quoteleft" unicode="&#x2018;" horiz-adv-x="263" 
d="M175 628v163l-87 -79v-84h87z" />
    <glyph glyph-name="quoteright" unicode="&#x2019;" horiz-adv-x="263" 
d="M175 628v84h-87v-163z" />
    <glyph glyph-name="quotesinglbase" unicode="&#x201a;" horiz-adv-x="263" 
d="M175 0v84h-87v-163z" />
    <glyph glyph-name="quotedblleft" unicode="&#x201c;" horiz-adv-x="434" 
d="M346 628v163l-88 -79v-84h88zM175 628v163l-87 -79v-84h87z" />
    <glyph glyph-name="quotedblright" unicode="&#x201d;" horiz-adv-x="434" 
d="M346 628v84h-88v-163zM175 628v84h-87v-163z" />
    <glyph glyph-name="quotedblbase" unicode="&#x201e;" horiz-adv-x="434" 
d="M346 0v84h-88v-163zM175 0v84h-87v-163z" />
    <glyph glyph-name="dagger" unicode="&#x2020;" horiz-adv-x="605" 
d="M531 445v64h-194v203h-72v-203h-191v-64h191v-445h72v445h194z" />
    <glyph glyph-name="daggerdbl" unicode="&#x2021;" horiz-adv-x="605" 
d="M531 -16v64h-194v397h194v64h-194v203h-72v-203h-191v-64h191v-397h-191v-64h191v-204h72v204h194z" />
    <glyph glyph-name="bullet" unicode="&#x2022;" horiz-adv-x="532" 
d="M429 334c0 22.667 -4.33301 43.834 -13 63.501s-20.334 36.834 -35.001 51.501s-31.834 26.334 -51.501 35.001s-40.834 13 -63.501 13s-43.834 -4.33301 -63.501 -13s-36.834 -20.334 -51.501 -35.001s-26.334 -31.834 -35.001 -51.501s-13 -40.834 -13 -63.501
s4.33301 -43.834 13 -63.501s20.334 -36.834 35.001 -51.501s31.834 -26.334 51.501 -35.001s40.834 -13 63.501 -13s43.834 4.33301 63.501 13s36.834 20.334 51.501 35.001s26.334 31.834 35.001 51.501s13 40.834 13 63.501z" />
    <glyph glyph-name="ellipsis" unicode="&#x2026;" horiz-adv-x="757" 
d="M669 0v92h-92v-92h92zM424 0v92h-92v-92h92zM180 0v92h-92v-92h92z" />
    <glyph glyph-name="perthousand" unicode="&#x2030;" horiz-adv-x="1179" 
d="M1115 128v105c0 41.333 -12.833 74.166 -38.5 98.499s-57.834 36.5 -96.501 36.5c-39.333 0 -71.666 -12.167 -96.999 -36.5s-38 -57.166 -38 -98.499v-105c0 -41.333 12.667 -74.166 38 -98.499s57.666 -36.5 96.999 -36.5c38.667 0 70.834 12.167 96.501 36.5
s38.5 57.166 38.5 98.499zM769 128v105c0 41.333 -12.833 74.166 -38.5 98.499s-57.834 36.5 -96.501 36.5c-39.333 0 -71.666 -12.167 -96.999 -36.5s-38 -57.166 -38 -98.499v-105c0 -41.333 12.667 -74.166 38 -98.499s57.666 -36.5 96.999 -36.5
c38.667 0 70.834 12.167 96.501 36.5s38.5 57.166 38.5 98.499zM614 712h-60l-334 -712h60zM335 479v105c0 41.333 -12.833 74.166 -38.5 98.499s-57.834 36.5 -96.501 36.5c-39.333 0 -71.666 -12.167 -96.999 -36.5s-38 -57.166 -38 -98.499v-105
c0 -40.667 12.667 -73.167 38 -97.5s57.666 -36.5 96.999 -36.5c38.667 0 70.834 12.167 96.501 36.5s38.5 56.833 38.5 97.5zM1058 130c0 -26.667 -6.16699 -47.8301 -18.5 -63.4971s-32.166 -23.5 -59.499 -23.5c-28 0 -48 7.66699 -60 23s-18 36.666 -18 63.999v101
c0 27.333 6 48.666 18 63.999s32 23 60 23c27.333 0 47.166 -7.83301 59.499 -23.5s18.5 -36.834 18.5 -63.501v-101zM712 130.004c0 -26.667 -6.16699 -47.8301 -18.5 -63.4971s-32.166 -23.5 -59.499 -23.5c-28 0 -48 7.66699 -60 23s-18 36.666 -18 63.999v101
c0 27.333 6 48.666 18 63.999s32 23 60 23c27.333 0 47.166 -7.83301 59.499 -23.5s18.5 -36.834 18.5 -63.501v-101zM278 481.008c0 -26.667 -6.16797 -47.665 -18.501 -62.998s-32.166 -23 -59.499 -23s-47.166 7.5 -59.499 22.5s-18.5 36.167 -18.5 63.5v101
c0 27.333 6 48.666 18 63.999s32 23 60 23c27.333 0 47.166 -7.83301 59.499 -23.5s18.5 -36.834 18.5 -63.501v-101z" />
    <glyph glyph-name="guilsinglleft" unicode="&#x2039;" horiz-adv-x="328" 
d="M250 58v89l-120 121l120 120v90l-210 -210z" />
    <glyph glyph-name="guilsinglright" unicode="&#x203a;" horiz-adv-x="328" 
d="M288 268l-210 210v-90l121 -120l-121 -121v-89z" />
    <glyph glyph-name="trademark" unicode="&#x2122;" horiz-adv-x="839" 
d="M781 285v427h-57l-130 -259l-130 259h-58v-427h58v308l102 -202h56l102 202v-308h57zM331 659v53h-295v-53h118v-374h58v374h119z" />
    <glyph glyph-name="partialdiff" unicode="&#x2202;" horiz-adv-x="544" 
d="M453 244l0.000976562 257.998c0 32 -4.33301 61.167 -13 87.5s-21.667 49 -39 68s-38.833 33.833 -64.5 44.5s-55.167 16 -88.5 16c-18.667 0 -35.334 -1.16699 -50.001 -3.5s-28.5 -6.16602 -41.5 -11.499s-25.5 -12.166 -37.5 -20.499s-24.333 -18.5 -37 -30.5l46 -46
c8.66699 8 17.167 15.167 25.5 21.5s17 11.5 26 15.5s18.833 7.16699 29.5 9.5s23 3.5 37 3.5c24 0 44.5 -4 61.5 -12s31 -18.833 42 -32.5s19 -29.5 24 -47.5s7.5 -37 7.5 -57v-70c-19.333 23.333 -39.5 38.833 -60.5 46.5s-43.5 11.5 -67.5 11.5
c-29.333 0 -55 -5.33301 -77 -16s-39.667 -23 -53 -37c-24 -24.667 -39.5 -53.667 -46.5 -87s-10.5 -70.333 -10.5 -111c0 -38 3.5 -73.667 10.5 -107s22.5 -62.666 46.5 -87.999c16 -17.333 35.5 -30.833 58.5 -40.5s49.167 -14.5 78.5 -14.5s55.333 4.83301 78 14.5
s42 23.167 58 40.5c24 25.333 39.5 54.666 46.5 87.999s10.5 69 10.5 107zM381.001 243.998c0 -14 -0.333008 -28 -1 -42s-2.33398 -27.5 -5.00098 -40.5s-6.33398 -25.333 -11.001 -37s-11.334 -21.834 -20.001 -30.501c-22.667 -24 -50.667 -36 -84 -36
c-34 0 -62.333 12 -85 36c-8.66699 8.66699 -15.5 18.834 -20.5 30.501s-8.66699 24 -11 37s-3.83301 26.5 -4.5 40.5s-1 28 -1 42s0.333008 28 1 42s2.16699 27.5 4.5 40.5s6 25.333 11 37s11.833 22.167 20.5 31.5c22.667 24 51 36 85 36c33.333 0 61.333 -12 84 -36
c8.66699 -9.33301 15.334 -19.833 20.001 -31.5s8.33398 -24 11.001 -37s4.33398 -26.5 5.00098 -40.5s1 -28 1 -42z" />
    <glyph glyph-name="product" unicode="&#x220f;" horiz-adv-x="696" 
d="M593 -220v980h-490v-980h76v912h338v-912h76z" />
    <glyph glyph-name="summation" unicode="&#x2211;" horiz-adv-x="551" 
d="M500 -220v68h-356l182 400v69l-180 375h353v68h-441v-64l201 -413l-202 -438v-65h443z" />
    <glyph glyph-name="minus" unicode="&#x2212;" 
d="M470 236v67h-418v-67h418z" />
    <glyph glyph-name="fraction" unicode="&#x2215;" horiz-adv-x="185" 
d="M289 712h-60l-333 -712h60z" />
    <glyph glyph-name="radical" unicode="&#x221a;" horiz-adv-x="562" 
d="M532 644v68h-146l-184 -576l-115 356h-79l163 -492h61l211 644h89z" />
    <glyph glyph-name="infinity" unicode="&#x221e;" horiz-adv-x="808" 
d="M740 267c0 22.667 -3.66602 43.666 -10.999 62.999s-18 36.166 -32 50.499s-30.667 25.666 -50 33.999s-41 12.5 -65 12.5c-35.333 0 -66.333 -8.66699 -93 -26s-55 -44 -85 -80c-30 36 -58.667 62.667 -86 80s-57.666 26 -90.999 26c-24 0 -45.833 -4.16699 -65.5 -12.5
s-36.5 -19.666 -50.5 -33.999s-24.833 -31.166 -32.5 -50.499s-11.5 -40.333 -11.5 -63s3.83301 -43.667 11.5 -63s18.5 -36.166 32.5 -50.499s30.833 -25.666 50.5 -33.999s41.5 -12.5 65.5 -12.5c34 0 64.667 8.5 92 25.5s55.666 43.5 84.999 79.5
c14.667 -18 29 -33.5 43 -46.5s28 -23.833 42 -32.5s28.667 -15 44 -19s31.666 -6 48.999 -6c24 0 45.667 4 65 12s36 19.167 50 33.5s24.667 31.166 32 50.499s11 40.333 11 63zM671.001 265.999c0 -28 -8.5 -50.5 -25.5 -67.5s-39.167 -25.5 -66.5 -25.5
c-24.667 0 -46.667 8.5 -66 25.5s-40.666 39.5 -63.999 67.5c23.333 28 44.666 50.5 63.999 67.5s41.333 25.5 66 25.5c27.333 0 49.5 -8.5 66.5 -25.5s25.5 -39.5 25.5 -67.5zM358.001 265.999c-23.333 -28 -44.5 -50.5 -63.5 -67.5s-40.833 -25.5 -65.5 -25.5
c-27.333 0 -49.666 8.5 -66.999 25.5s-26 39.5 -26 67.5s8.66699 50.667 26 68s39.666 26 66.999 26c24.667 0 46.5 -8.66699 65.5 -26s40.167 -40 63.5 -68z" />
    <glyph glyph-name="integral" unicode="&#x222b;" horiz-adv-x="372" 
d="M334 653v62h-49c-43.333 0 -76.833 -12.667 -100.5 -38s-35.5 -59.333 -35.5 -102v-654c0 -24.667 -6 -43.667 -18 -57s-30.333 -20 -55 -20h-39v-62h50c43.333 0 76.833 12.667 100.5 38s35.5 59.333 35.5 102v654c0 24.667 6 43.667 18 57s30.333 20 55 20h38z" />
    <glyph glyph-name="approxequal" unicode="&#x2248;" horiz-adv-x="539" 
d="M490 366l-45 45c-10 -10 -18.667 -17.833 -26 -23.5s-14.166 -10 -20.499 -13s-12.5 -5 -18.5 -6s-12.333 -1.5 -19 -1.5c-13.333 0 -26.166 2.16699 -38.499 6.5s-25.5 9.83301 -39.5 16.5c-19.333 8.66699 -37.333 16.167 -54 22.5s-33.667 9.5 -51 9.5
c-11.333 0 -21.833 -1 -31.5 -3s-19.334 -5.5 -29.001 -10.5s-20 -12 -31 -21s-23.5 -20.5 -37.5 -34.5l44 -44c10 10 18.667 17.833 26 23.5s14.166 10 20.499 13s12.333 5 18 6s12.167 1.5 19.5 1.5c13.333 0 26.166 -2.16699 38.499 -6.5s25.5 -9.83301 39.5 -16.5
c19.333 -8.66699 37.5 -16.167 54.5 -22.5s34.167 -9.5 51.5 -9.5c11.333 0 21.833 0.833008 31.5 2.5s19.334 5 29.001 10s20 12 31 21s23.5 20.5 37.5 34.5zM490 189l-45 45c-10 -10 -18.667 -17.833 -26 -23.5s-14.166 -10.167 -20.499 -13.5s-12.5 -5.5 -18.5 -6.5
s-12.333 -1.5 -19 -1.5c-13.333 0 -26 2.33301 -38 7s-25 10.334 -39 17.001c-19.333 8.66699 -37.5 16 -54.5 22s-34.167 9 -51.5 9c-11.333 0 -21.833 -1 -31.5 -3s-19.334 -5.5 -29.001 -10.5s-20 -11.833 -31 -20.5s-23.5 -20 -37.5 -34l45 -45
c10 10 18.667 17.833 26 23.5s14.166 10.167 20.499 13.5s12.333 5.5 18 6.5s12.167 1.5 19.5 1.5c13.333 0 26 -2.33301 38 -7s25 -10.334 39 -17.001c19.333 -8.66699 37.5 -16 54.5 -22s34.167 -9 51.5 -9c11.333 0 21.833 0.833008 31.5 2.5s19.334 5 29.001 10
s20 12 31 21s23.5 20.5 37.5 34.5z" />
    <glyph glyph-name="notequal" unicode="&#x2260;" horiz-adv-x="537" 
d="M485 151v66h-224l98 103h126v67h-67l67 70l-45 41l-104 -111h-284v-67h225l-99 -103h-126v-66h67l-67 -71l46 -40l103 111h284z" />
    <glyph glyph-name="lessequal" unicode="&#x2264;" horiz-adv-x="1027" 
d="M862 -31l-557 558l515 -1l-66 67h-565v-564l67 -67v516l557 -558z" />
    <glyph glyph-name="greaterequal" unicode="&#x2265;" horiz-adv-x="1027" 
d="M838 29v564h-565l-66 -67l515 1l-557 -558l49 -49l557 558v-516z" />
    <glyph glyph-name="lozenge" unicode="&#x25ca;" horiz-adv-x="649" 
d="M582 352l-257 364l-258 -364l258 -364zM501 352l-176 -255l-177 255l177 253z" />
    <glyph glyph-name="fi" unicode="&#xfb01;" horiz-adv-x="562" 
d="M476 639v74h-82v-74h82zM471 0v489h-72v-489h72zM282 434v54.999h-105v91c0 22.667 5.16699 40.334 15.5 53.001s27.166 19 50.499 19h39v62h-52c-21.333 0 -39.666 -3.5 -54.999 -10.5s-28.333 -16.5 -39 -28.5s-18.5 -26 -23.5 -42s-7.5 -33 -7.5 -51v-93h-63v-55h63
v-434h72v434h105z" />
    <glyph glyph-name="fl" unicode="&#xfb02;" horiz-adv-x="602" 
d="M573 0v62h-40c-25.333 0 -42.666 6 -51.999 18s-14 30 -14 54v578h-72v-581c0 -37.333 10.167 -68.5 30.5 -93.5s52.166 -37.5 95.499 -37.5h52zM282 434v54.999h-105v91c0 22.667 5.16699 40.334 15.5 53.001s27.166 19 50.499 19h39v62h-52
c-21.333 0 -39.666 -3.5 -54.999 -10.5s-28.333 -16.5 -39 -28.5s-18.5 -26 -23.5 -42s-7.5 -33 -7.5 -51v-93h-63v-55h63v-434h72v434h105z" />
    <glyph glyph-name=".null" horiz-adv-x="0" 
 />
    <glyph glyph-name="nonmarkingreturn" horiz-adv-x="249" 
 />
    </font>
</defs>
</svg>
